<svg width="55" height="55" viewBox="0 0 55 55" fill="none" xmlns="http://www.w3.org/2000/svg">
<path d="M48.5036 32.3867C55.5809 24.7828 55.0064 12.757 54.9779 12.2379C54.9326 11.418 54.2776 10.7634 53.4576 10.7181C53.2122 10.7042 49.7356 10.5347 45.3854 11.4201C44.5273 7.01328 43.0238 3.84727 42.9525 3.6983C42.5971 2.9581 41.7419 2.60394 40.9664 2.87585C40.8108 2.9304 37.5109 4.10533 33.7897 6.61339C31.3488 2.92788 28.7786 0.59355 28.5747 0.411016C27.9633 -0.137005 27.0372 -0.137005 26.4254 0.411016C26.2215 0.59355 23.6513 2.92788 21.2104 6.61381C17.4892 4.10575 14.1889 2.9304 14.0337 2.87585C13.2587 2.60436 12.4031 2.9581 12.0476 3.6983C11.9763 3.84727 10.4724 7.01328 9.61469 11.4205C5.26452 10.5351 1.78756 10.7047 1.54209 10.7181C0.722152 10.7634 0.0675478 11.418 0.022229 12.2384C-0.00672458 12.757 -0.580762 24.7828 6.49651 32.3867C2.89074 34.3829 0.529967 36.9908 0.413313 37.1209C-0.134288 37.7327 -0.134288 38.6588 0.413313 39.2706C0.6697 39.5568 6.77766 46.2786 14.5565 46.2786C16.5778 46.2786 18.4854 45.8242 20.2079 45.1473C21.9985 50.5713 26.2261 54.4058 26.425 54.5845C26.7309 54.8581 27.1157 54.9953 27.5001 54.9953C27.8844 54.9953 28.2688 54.8581 28.5747 54.5845C28.774 54.4062 33.0008 50.5713 34.7918 45.1477C36.5143 45.8242 38.4219 46.2786 40.4432 46.2786C48.2221 46.2786 54.3304 39.5568 54.5868 39.2706C55.1344 38.6588 55.1344 37.7327 54.5868 37.1209C54.4698 36.9904 52.1086 34.3824 48.5036 32.3867ZM45.7623 30.5895C41.5711 34.7807 35.3285 36.0651 31.3585 36.4461C34.2228 33.0258 38.2574 26.956 38.2574 19.9035C38.2574 19.1142 38.2054 18.3379 38.1118 17.5755C43.002 14.5538 49.0051 14.0121 51.7636 13.9345C51.6722 17.2927 50.8967 25.4551 45.7623 30.5895ZM40.6312 6.49422C41.1171 7.7644 41.8006 9.80332 42.2576 12.2186C40.6526 12.7176 39.0081 13.3772 37.4219 14.2479C36.9167 12.5094 36.2201 10.8792 35.4371 9.39042C37.4668 8.00694 39.3904 7.04811 40.6312 6.49422ZM27.5017 3.88335C29.5117 6.0062 33.7255 11.066 34.7872 17.1265C34.7876 17.1273 34.7876 17.1282 34.788 17.1294C34.9462 18.0337 35.0347 18.9606 35.0347 19.9035C35.0347 27.1394 29.8105 33.4744 27.5001 35.9216C25.1897 33.4744 19.965 27.1394 19.965 19.9035C19.965 12.6651 25.1934 6.32805 27.5017 3.88335ZM14.3685 6.49422C15.6094 7.04853 17.5333 8.00736 19.5626 9.39084C18.7796 10.8792 18.083 12.5094 17.5778 14.2479C15.9916 13.3772 14.3471 12.7176 12.7421 12.2186C13.1991 9.80332 13.883 7.76398 14.3685 6.49422ZM16.8879 17.5755C16.7944 18.3379 16.7427 19.1142 16.7427 19.9035C16.7427 26.9602 20.7816 33.0325 23.6459 36.452C19.6813 36.076 13.4433 34.7953 9.23704 30.5895C4.11854 25.471 3.33511 17.2931 3.2386 13.9319C5.99507 14.0066 11.9855 14.5437 16.8879 17.5755ZM3.91377 38.1934C4.99932 37.2098 6.8213 35.7525 9.06835 34.6867C13.7576 38.18 19.55 39.3201 23.3996 39.6751C22.6019 40.2663 21.667 40.8798 20.6301 41.4194C20.5722 41.4446 20.5164 41.474 20.4627 41.5055C18.7175 42.3904 16.6949 43.0564 14.5565 43.0564C9.92563 43.0564 5.80666 39.9034 3.91377 38.1934ZM27.4976 51.0841C26.2043 49.6574 24.0915 46.9618 23.1348 43.7131C25.0247 42.6019 26.5316 41.3552 27.4996 40.4644C28.4677 41.3552 29.9746 42.6019 31.8641 43.7127C30.9086 46.9492 28.7908 49.6532 27.4976 51.0841ZM40.4432 43.0564C36.9696 43.0564 33.7847 41.2826 31.6102 39.6738C35.4598 39.318 41.2463 38.1766 45.9309 34.6871C48.1696 35.75 49.9975 37.2123 51.0868 38.1972C49.1994 39.9084 45.0947 43.0564 40.4432 43.0564Z" fill="#D1D1D1"/>
</svg>
