<svg width="19" height="19" viewBox="0 0 19 19" fill="none" xmlns="http://www.w3.org/2000/svg">
<path d="M17.5313 2.08216H15.728V1.1712C15.728 1.01719 15.6031 0.892334 15.4491 0.892334C15.2951 0.892334 15.1703 1.01719 15.1703 1.1712V2.08216H12.7534V1.1712C12.7534 1.01719 12.6286 0.892334 12.4746 0.892334C12.3206 0.892334 12.1957 1.01719 12.1957 1.1712V2.08216H9.77886V1.1712C9.77886 1.01719 9.65401 0.892334 9.5 0.892334C9.34599 0.892334 9.22114 1.01719 9.22114 1.1712V2.08216H6.80431V1.1712C6.80431 1.01719 6.67945 0.892334 6.52544 0.892334C6.37143 0.892334 6.24658 1.01719 6.24658 1.1712V2.08216H3.82975V1.1712C3.82975 1.01719 3.70489 0.892334 3.55088 0.892334C3.39687 0.892334 3.27202 1.01719 3.27202 1.1712V2.08216H1.46869C0.658865 2.08216 0 2.74102 0 3.55085V16.6389C0 17.4487 0.658865 18.1076 1.46869 18.1076H17.5313C18.3411 18.1076 19 17.4487 19 16.6389V3.55085C19 2.74102 18.3411 2.08216 17.5313 2.08216ZM18.4423 16.6389C18.4423 17.1412 18.0336 17.5499 17.5313 17.5499H1.46869C0.966397 17.5499 0.55773 17.1412 0.55773 16.6389V3.55085C0.55773 3.04856 0.966397 2.63989 1.46869 2.63989H3.27202V3.55085C3.27202 3.70485 3.39687 3.82971 3.55088 3.82971C3.70489 3.82971 3.82975 3.70485 3.82975 3.55085V2.63989H6.24658V3.55085C6.24658 3.70485 6.37143 3.82971 6.52544 3.82971C6.67945 3.82971 6.80431 3.70485 6.80431 3.55085V2.63989H9.22114V3.55085C9.22114 3.70485 9.34599 3.82971 9.5 3.82971C9.65401 3.82971 9.77886 3.70485 9.77886 3.55085V2.63989H12.1957V3.55085C12.1957 3.70485 12.3206 3.82971 12.4746 3.82971C12.6286 3.82971 12.7534 3.70485 12.7534 3.55085V2.63989H15.1703V3.55085C15.1703 3.70485 15.2951 3.82971 15.4491 3.82971C15.6031 3.82971 15.728 3.70485 15.728 3.55085V2.63989H17.5313C18.0336 2.63989 18.4423 3.04856 18.4423 3.55085V16.6389Z" fill="#C6C6C6"/>
<path d="M17.5313 5.05664H1.46868C1.31468 5.05664 1.18982 5.1815 1.18982 5.33551C1.18982 5.48951 1.31468 5.61437 1.46868 5.61437H17.5313C17.6853 5.61437 17.8102 5.48951 17.8102 5.33551C17.8102 5.1815 17.6853 5.05664 17.5313 5.05664Z" fill="#C6C6C6"/>
<path d="M16.6018 6.54395H2.39826C2.22399 6.54395 2.08221 6.68572 2.08221 6.85999V16.3042C2.08221 16.4785 2.22399 16.6203 2.39826 16.6203H16.6018C16.7761 16.6203 16.9178 16.4785 16.9178 16.3042V6.85999C16.9178 6.68572 16.7761 6.54395 16.6018 6.54395ZM12.7906 11.3032H9.77889V9.48132H12.7906V11.3032ZM13.3484 9.48132H16.3601V11.3032H13.3484V9.48132ZM9.77889 8.92359V7.10168H12.7906V8.92359H9.77889ZM9.22116 8.92359H6.20942V7.10168H9.22116V8.92359ZM9.22116 9.48132V11.3032H6.20942V9.48132H9.22116ZM5.65169 11.3032H2.63994V9.48132H5.65169V11.3032ZM2.63994 11.861H5.65169V13.6829H2.63994V11.861ZM6.20942 11.861H9.22116V13.6829H6.20942V11.861ZM9.22116 14.2406V16.0625H6.20942V14.2406H9.22116ZM9.77889 14.2406H12.7906V16.0625H9.77889V14.2406ZM9.77889 13.6829V11.861H12.7906V13.6829H9.77889ZM13.3484 11.861H16.3601V13.6829H13.3484V11.861ZM16.3601 8.92359H13.3484V7.10168H16.3601V8.92359ZM5.65169 7.10168V8.92359H2.63994V7.10168H5.65169ZM2.63994 14.2406H5.65169V16.0625H2.63994V14.2406ZM13.3484 16.0625V14.2406H16.3601V16.0625H13.3484Z" fill="#C6C6C6"/>
</svg>
