<svg width="55" height="55" viewBox="0 0 55 55" fill="none" xmlns="http://www.w3.org/2000/svg">
<path d="M8.08762 46.9125C10.6076 49.4324 13.5431 51.4112 16.8127 52.7942C20.1999 54.2268 23.7956 54.9531 27.5 54.9531C31.2043 54.9531 34.8 54.2268 38.1872 52.7942C41.4568 51.4112 44.3923 49.4323 46.9124 46.9125C49.4323 44.3924 51.4113 41.4569 52.7941 38.1873C54.2268 34.8 54.9533 31.2043 54.9533 27.5001C54.9533 23.7956 54.2268 20.2 52.7941 16.8128C51.4113 13.5432 49.4322 10.6077 46.9124 8.08774C44.3923 5.56774 41.4569 3.58884 38.1872 2.20596C34.7999 0.773211 31.2043 0.046875 27.5 0.046875C23.7956 0.046875 20.1999 0.773304 16.8127 2.20596C13.5431 3.58884 10.6076 5.56783 8.08762 8.08774C5.56762 10.6077 3.58872 13.5432 2.20574 16.8128C0.773182 20.2 0.0467529 23.7956 0.0467529 27.5001C0.0467529 31.2044 0.773182 34.8 2.20583 38.1873C3.58872 41.4569 5.56771 44.3924 8.08762 46.9125ZM27.5 4.05463C40.4486 4.05463 50.9454 14.5515 50.9454 27.5001C50.9454 40.4486 40.4486 50.9454 27.5 50.9454C14.5514 50.9454 4.05451 40.4486 4.05451 27.5001C4.05451 14.5515 14.5514 4.05463 27.5 4.05463Z" fill="#E80000"/>
<path d="M27.5 55.0008C23.7891 55.0008 20.1873 54.2732 16.7945 52.8382C13.5193 51.4528 10.5787 49.4705 8.05462 46.9464C5.53031 44.422 3.54804 41.4814 2.16282 38.2063C0.727645 34.8133 0 31.2114 0 27.501C0 23.7904 0.727645 20.1885 2.16273 16.7954C3.54795 13.5203 5.53031 10.5798 8.05452 8.0555C10.5787 5.53119 13.5193 3.54893 16.7944 2.16371C20.1875 0.728622 23.7894 0.000976562 27.4999 0.000976562C31.2107 0.000976562 34.8126 0.728622 38.2053 2.1638C41.4805 3.54902 44.421 5.53138 46.9454 8.05559C49.4698 10.5801 51.4521 13.5206 52.8372 16.7955C54.2724 20.1886 55 23.7904 55 27.501C55 31.2114 54.2724 34.8133 52.8372 38.2064C51.4521 41.4814 49.4699 44.4219 46.9454 46.9465C44.4212 49.4705 41.4806 51.4528 38.2053 52.8383C34.8126 54.2732 31.2107 55.0008 27.5 55.0008ZM27.5 0.0945283C23.802 0.0945283 20.2125 0.819648 16.831 2.24987C13.5671 3.63041 10.6365 5.60594 8.12076 8.12164C5.60497 10.6374 3.62943 13.5679 2.24889 16.8318C0.818671 20.2134 0.0935517 23.803 0.0935517 27.501C0.0935517 31.1988 0.818671 34.7885 2.24889 38.17C3.62943 41.4339 5.60497 44.3644 8.12076 46.8802C10.6364 49.3957 13.5669 51.3713 16.831 52.752C20.2121 54.1821 23.8017 54.9072 27.5 54.9072C31.1983 54.9072 34.7878 54.1821 38.169 52.7519C41.433 51.3713 44.3636 49.3957 46.8792 46.8802C49.3951 44.3641 51.3706 41.4336 52.7509 38.17C54.1812 34.7885 54.9064 31.1989 54.9064 27.501C54.9064 23.803 54.1812 20.2134 52.7509 16.832C51.3707 13.5682 49.3951 10.6377 46.8792 8.12174C44.3635 5.60604 41.4328 3.6305 38.169 2.24996C34.7877 0.819648 31.1981 0.0945283 27.5 0.0945283ZM27.5 50.993C21.225 50.993 15.3256 48.5495 10.8885 44.1124C6.45142 39.6752 4.00776 33.776 4.00776 27.501C4.00776 21.226 6.45133 15.3265 10.8885 10.8895C15.3256 6.4524 21.225 4.00873 27.5 4.00873C33.775 4.00873 39.6744 6.4524 44.1114 10.8895C48.5486 15.3266 50.9921 21.226 50.9921 27.501C50.9921 33.776 48.5486 39.6753 44.1114 44.1124C39.6744 48.5495 33.7749 50.993 27.5 50.993ZM27.5 4.10229C21.25 4.10229 15.3741 6.53622 10.9546 10.9556C6.53524 15.3751 4.10131 21.251 4.10131 27.501C4.10131 33.751 6.53524 39.6269 10.9546 44.0462C15.374 48.4656 21.25 50.8995 27.5 50.8995C33.75 50.8995 39.6259 48.4656 44.0453 44.0462C48.4647 39.6269 50.8986 33.7509 50.8986 27.501C50.8986 21.251 48.4647 15.375 44.0453 10.9556C39.6258 6.53613 33.75 4.10229 27.5 4.10229Z" fill="#E80000"/>
</svg>
