<svg width="74" height="40" viewBox="0 0 74 40" fill="none" xmlns="http://www.w3.org/2000/svg">
<path fill-rule="evenodd" clip-rule="evenodd" d="M9.07852 34.1749C8.98852 34.1749 8.83618 34.1142 8.78267 34.0659C8.36348 33.6876 9.17776 31.7898 10.6073 31.7582C10.6043 31.8923 10.581 32.0114 10.5769 32.1927C10.561 32.9108 9.99164 34.1748 9.07865 34.1748L9.07852 34.1749ZM14.6004 19.6438C14.6004 18.6203 15.0558 16.8619 15.3532 15.8988C15.4011 15.7435 15.4242 15.6354 15.4945 15.4814C15.6809 15.0724 15.7499 14.7656 16.1049 14.4146C16.5371 13.9874 17.1587 14.1588 17.1587 15.1822C17.1587 16.5524 16.5574 17.7597 15.7689 18.6972L15.1267 19.2986C15.0091 19.3856 14.7344 19.6081 14.6005 19.6437L14.6004 19.6438ZM12.7597 20.0776C11.8664 20.0776 11.4868 19.9139 10.7422 19.5716C10.5524 19.4844 10.418 19.4099 10.2141 19.3525C9.90913 19.2666 9.47565 19.0207 9.25659 18.8472L9.05496 18.6756C8.90166 18.5316 8.60255 18.2663 8.54809 18.0637H8.48574C8.46777 18.2788 8.37056 18.568 8.3338 18.7803L7.89555 21.0096C7.79698 21.4992 7.69787 22.0012 7.58719 22.4694C7.41728 23.1885 7.2652 23.8533 7.03158 24.5511C6.67937 25.6032 6.30538 26.6825 5.56081 27.521C5.33031 27.7804 4.82617 28.1331 4.36777 28.1331C4.06117 28.1331 3.7528 27.8904 3.59515 27.7231C3.02824 27.1217 2.9328 25.6418 2.9328 24.7869C2.9328 22.7516 3.34274 20.5903 3.59705 18.5995C3.70202 17.7784 4.0933 15.4338 3.5027 14.7712C3.23872 14.4749 2.73376 14.3768 2.30885 14.3768C1.75747 14.3768 1.21602 14.7678 0.90057 15.0229C0.623243 15.2472 0.0355056 15.784 0.000244141 16.2047C0.10208 16.2582 0.183087 16.3081 0.280975 16.3596C0.478385 15.9511 0.655917 15.7034 1.06612 15.4353C1.7335 14.9989 2.08054 15.5 2.09061 16.2975C2.09388 16.5632 2.14875 16.7268 2.10355 17.0235C2.03765 17.4558 2.05971 17.9105 1.97489 18.4138L1.47578 21.76C1.22078 23.5115 0.239995 28.0453 2.20456 29.2591C2.79584 29.6244 3.28882 29.6204 3.99337 29.6204C4.29126 29.6204 4.76177 29.3978 4.95469 29.2738C5.26006 29.0776 5.43487 28.9165 5.68579 28.6677C6.1303 28.2269 6.50565 27.6927 6.79033 27.131C6.83744 27.038 6.8569 27.0196 6.90469 26.9348C7.51271 25.856 7.88425 24.6679 8.24163 23.4913L8.26736 24.1056C8.26736 25.3651 8.46015 26.6965 9.02583 27.6279C9.14795 27.8291 9.27416 28.0121 9.44012 28.1769C9.45986 28.1965 9.48178 28.2143 9.50546 28.236L9.87877 28.5158C10.486 28.8408 10.8683 28.6332 11.2935 28.5981C11.0651 29.0267 10.8728 30.1108 10.7873 30.6361C10.7538 30.8423 10.6819 30.8224 10.503 30.9113C10.4257 30.9497 10.3948 30.9653 10.3131 31.0015C10.1692 31.0655 10.0816 31.1209 9.94167 31.1903C9.43998 31.4391 8.97668 31.7135 8.53462 32.0547C8.30821 32.2292 8.13313 32.4107 7.94824 32.6186C7.46343 33.1645 7.3315 33.8669 7.6072 34.5517C7.82598 35.095 8.39316 35.5692 9.01616 35.5692C9.41248 35.5692 9.73637 35.4227 9.98946 35.2653C11.1177 34.5639 11.4206 32.9506 11.5878 31.6785C11.6371 31.3033 11.573 31.3628 12.4138 31.1976C14.1412 30.8581 16.3292 30.9823 18.0457 31.2181C18.5722 31.2905 19.0596 31.3602 19.5385 31.4396C22.6719 31.9585 26.405 32.8401 29.562 33.5374C30.5182 33.7486 31.4651 33.9461 32.422 34.1362C33.9793 34.4456 35.3508 34.6343 36.9329 34.7996C39.3449 35.0514 42.1867 34.8397 44.5008 34.188C45.6033 33.8776 46.6053 33.5375 47.643 33.1259C48.3044 32.8636 48.9734 32.5682 49.6041 32.254L50.9873 31.5518C51.0788 31.5068 51.1238 31.4802 51.2112 31.4334L52.1373 30.9278C52.2201 30.8785 52.2846 30.8351 52.3708 30.7879C52.5372 30.6966 52.6481 30.6347 52.8077 30.5401C52.9678 30.4453 53.1023 30.3713 53.2602 30.2769C53.3381 30.2304 53.4029 30.2008 53.479 30.1534L54.9951 29.2115C55.1496 29.1085 55.7435 28.7871 55.8124 28.5979C55.3743 28.6993 53.9938 29.6846 53.4199 30.0018L52.3988 30.5679C51.9099 30.8364 51.3942 31.0529 50.8935 31.3037C50.7489 31.3762 50.6145 31.4322 50.4673 31.5002L49.5688 31.8781C48.1616 32.4518 46.7404 32.8688 45.1666 33.2071C43.1441 33.6418 41.4177 33.7102 39.3401 33.7102C36.1535 33.7102 32.089 32.8965 29.0078 32.1359L25.7769 31.3788C25.2622 31.2711 24.694 31.1254 24.1702 31.0226C22.5711 30.7091 20.6352 30.2761 19.0306 30.1782C18.4244 30.1412 17.813 30.0539 17.1587 30.0543C16.4765 30.0547 15.9271 30.0164 15.2244 30.0541C15.0675 30.0625 14.9534 30.0793 14.7556 30.0843C14.6334 30.0875 14.4402 30.1056 14.2933 30.1209C13.5781 30.1951 12.8079 30.2966 12.1125 30.4338C12.0033 30.4553 11.8139 30.5095 11.6992 30.519L11.8861 29.6822C11.9587 29.4099 12.0363 29.1439 12.1182 28.8593C12.1987 28.5797 12.2684 28.3225 12.3505 28.0674C12.4292 27.8226 12.5035 27.4735 12.604 27.2657C12.4785 27.1823 12.3495 27.0191 12.033 27.2564C11.8112 27.4227 11.6028 27.6112 11.3294 27.7041C10.1242 28.1131 9.76496 25.4762 9.76496 24.7871C9.76496 23.8936 9.81084 23.0629 9.93868 22.2021C9.98592 21.884 10.0274 21.6132 10.077 21.317C10.1233 21.0397 10.2268 20.6959 10.233 20.4186C10.3097 20.4551 10.5758 20.53 10.683 20.5604C10.8604 20.6107 11.0036 20.654 11.1687 20.6977C11.6301 20.8196 12.2598 20.9062 12.76 20.7904C12.76 21.161 12.6951 21.469 12.6968 21.8122L12.6663 22.9903C12.6663 24.2789 12.838 25.597 13.1614 26.5575C13.4155 27.3129 13.8332 28.3082 14.6353 28.6258C15.324 28.8985 16.1194 28.5436 16.6535 28.1893C17.0261 27.9422 17.3676 27.6312 17.6057 27.2452C17.9825 26.6343 18.2899 25.9822 18.4698 25.2838C18.6492 24.5869 18.625 23.7627 18.4507 23.0706C18.3933 22.8422 18.2025 22.4481 18.1882 22.2777C18.4386 22.257 18.9178 21.7795 18.9682 21.5652C18.8017 21.5209 18.854 21.4235 18.6875 21.3792L18.5685 21.5399C18.5165 21.5896 18.4569 21.6313 18.3865 21.6689C18.2695 21.7313 18.075 21.7819 17.9075 21.7819C17.8378 21.7819 17.7247 21.6037 17.6751 21.548L17.5145 21.3976C16.6488 20.6816 15.4117 21.7028 15.4117 22.3085C15.4117 22.4178 15.4559 22.4615 15.5069 22.5239L15.6731 22.6996C16.2182 23.1145 16.6019 22.766 16.6908 22.7423C16.7346 22.929 16.869 23.2008 16.9403 23.3929C17.3648 24.5358 17.2369 26.0598 16.7624 27.1509C16.4115 27.9576 15.8521 28.424 15.1736 27.7502C15.0926 27.6697 15.0833 27.6596 15.0144 27.5674C14.3091 26.6224 14.2886 25.1789 14.2886 23.9507C14.2886 23.3037 14.308 22.7397 14.3909 22.1003L14.5398 20.792C14.5574 20.667 14.5977 20.4817 14.6004 20.3567C15.1695 20.3096 16.2177 19.4762 16.6163 19.0435C17.159 18.4543 17.6174 17.8123 18.011 17.1134C18.5022 16.2412 18.8477 14.977 18.0246 14.1676C17.4938 13.6456 16.8393 13.4799 16.055 13.7148C15.8094 13.7883 15.6295 13.8595 15.4408 13.9724C15.3483 14.0277 15.2653 14.0735 15.1744 14.1415C14.9306 14.3235 14.7003 14.5681 14.5481 14.8518C14.3378 15.2437 14.1732 15.6119 13.9944 16.0369C13.945 16.1544 13.9095 16.2144 13.8603 16.3374L13.5046 17.3163C13.2414 18.1008 13.0185 18.9261 12.9024 19.7546C12.8835 19.8899 12.8983 20.0777 12.7599 20.0777L12.7597 20.0776Z" fill="#222222"/>
<path fill-rule="evenodd" clip-rule="evenodd" d="M47.295 21.6886C47.1966 21.8734 47.1465 22.0181 47.0633 22.2331C46.7405 23.0684 46.2965 24.6186 46.296 25.4997C46.2957 25.8562 46.3376 26.2042 46.5279 26.478C46.5598 26.5238 46.6747 26.6663 46.7108 26.6992C46.84 26.8169 47.0326 26.9033 47.2198 26.9682C47.8137 27.1739 48.4145 26.9931 48.8334 26.5318L49.2702 25.9431C49.5941 25.3983 49.8259 24.8763 49.9777 24.2292C49.8808 24.1783 49.8502 24.1294 49.7593 24.1053C49.6917 24.3935 49.4402 24.8475 49.2675 25.0419C47.9144 26.5641 47.5384 25.033 47.7086 23.6797C47.8142 22.8391 48.1189 21.6109 48.4799 20.8826C48.6585 20.5222 48.8973 20.2722 48.5511 19.8834C48.4543 19.7747 48.3074 19.596 48.1372 19.5819C48.0449 19.9751 47.3967 20.7343 47.0145 21.0076C46.6667 21.2565 45.5216 21.8821 45.2048 21.2858C45.1074 21.1025 45.1589 20.8615 45.2046 20.6663C45.3084 20.664 45.4803 20.6214 45.5576 20.5831C45.8719 20.4282 46.0482 20.109 46.0773 19.7359C46.1173 19.2228 45.8923 18.7056 45.356 18.6541C45.2493 18.6438 45.083 18.698 45.0073 18.7354L44.7861 18.9184C44.7815 18.9228 44.7747 18.9291 44.77 18.9336C44.7654 18.938 44.7587 18.9444 44.7543 18.9489L44.6768 19.0269C44.6707 19.0335 44.6532 19.0527 44.6472 19.0596C44.27 19.5025 44.1304 20.5115 44.2686 21.1002C44.1515 21.1098 44.1112 21.1415 43.9951 21.1693C43.9341 21.1839 43.7724 21.2128 43.7029 21.22C43.2908 21.2627 42.9025 21.1851 42.5518 21.0081C42.3902 20.9266 42.2879 20.8219 42.1472 20.7283C41.9132 20.8513 41.7114 20.9786 41.4786 21.1177C41.312 21.2173 40.931 21.3944 40.837 21.5339C41.0148 21.6187 41.0673 21.5687 41.2477 21.7147L41.5549 22.0293C42.308 23.1032 42.1999 24.848 41.6175 25.965C41.3293 26.5176 40.7573 27.0004 40.0623 26.827C39.8739 26.7799 39.7833 26.7431 39.6329 26.6337L39.5289 26.5511C38.9976 26.1135 38.8273 25.1448 38.9424 24.2688C39.0492 23.4555 39.2416 22.5397 39.6336 21.8879C39.7896 21.6283 39.9434 21.3834 40.1581 21.1697C40.6032 20.7267 41.2593 20.4126 41.929 20.4491C42.1263 20.46 42.2923 20.5288 42.4593 20.5426C42.5096 20.3279 42.5635 20.0802 42.485 19.8353C42.1199 18.6966 40.248 19.0691 39.4741 19.5299C39.0898 19.7588 38.7531 20.0446 38.4704 20.3919C37.9574 21.0223 37.6154 21.7377 37.5005 22.558C37.3133 23.8943 37.5424 25.5365 38.3406 26.5848C38.538 26.844 38.9704 27.1717 39.2762 27.3287C39.8451 27.6206 40.677 27.5656 41.2606 27.2219C41.5239 27.0668 41.7554 26.8965 41.9681 26.6851C42.5502 26.107 42.9635 25.3977 43.2699 24.632C43.3111 24.5289 43.3581 24.4237 43.3916 24.3192C43.5713 23.7584 43.6942 23.1356 43.6008 22.5379C43.578 22.391 43.53 22.3077 43.5197 22.1847C43.5567 22.1671 43.5883 22.1593 43.6292 22.1386C43.6647 22.1206 43.7127 22.0877 43.7446 22.0673C43.9592 21.9301 44.1552 21.7336 44.362 21.5961C44.4093 22.1594 44.9725 22.6002 45.7148 22.4128C46.4268 22.2331 47.0306 21.7501 47.2946 21.689L47.295 21.6886Z" fill="#222222"/>
<path fill-rule="evenodd" clip-rule="evenodd" d="M43.2083 6.87926C43.2083 6.36965 43.716 4.96078 43.9452 4.32705C43.9936 4.1936 44.0337 4.0853 44.0778 3.96293C44.1595 3.73578 44.2555 3.53689 44.349 3.30271C44.5174 2.88058 45.1244 1.70508 45.6417 1.70508H45.7977C46.2263 1.70508 46.2657 2.28715 46.2657 2.6345C46.2657 3.41493 45.6973 4.60355 45.2364 5.23741C44.7419 5.91738 44.2656 6.30259 43.5337 6.73756C43.405 6.81409 43.3684 6.84221 43.2083 6.87926ZM40.8062 11.6197C40.8062 13.8195 41.4414 17.3017 44.5059 15.4798C44.7995 15.3052 44.7452 15.3143 44.9376 15.1649C45.0131 15.1062 45.0216 15.1024 45.0887 15.036C45.138 14.9872 45.1662 14.9598 45.2107 14.9092L45.5739 14.4644C45.7188 14.2518 45.8295 14.0587 45.9675 13.8328C46.3531 13.2018 46.7026 12.2623 46.7026 11.4335C46.7026 11.1546 46.6708 10.8938 46.6315 10.6366C46.5939 10.3906 46.5077 10.1492 46.453 9.91538C46.6158 9.90199 46.8188 9.76651 46.9401 9.68647C47.023 9.63171 47.0834 9.59453 47.1526 9.5257L47.3266 9.32668C47.2966 9.28206 47.1472 9.1071 47.1083 9.07884C46.9684 9.17173 46.977 9.22162 46.7755 9.30599C46.6575 9.35548 46.4546 9.3886 46.2973 9.3886C46.1687 9.3886 46.0695 9.08749 45.9045 8.94214C44.9144 8.0691 43.7078 9.22338 43.7078 9.63658C43.7078 9.84818 44.1421 10.4584 44.7255 10.2754C44.8498 10.2365 44.8247 10.2207 44.9245 10.1943C45.0687 10.8087 45.2366 11.1402 45.2366 11.9293C45.2366 12.3518 45.1557 12.6943 45.0782 13.0424C44.9684 13.5364 44.7718 14.0952 44.5259 14.5387C44.4287 14.7141 44.3402 14.8685 44.1993 15.0199L44.0486 15.1801C43.8712 15.3494 43.7119 15.3995 43.4894 15.3995C43.0761 15.3995 42.7218 14.8539 42.5752 14.5105C42.0515 13.2836 42.3869 11.1538 42.5933 9.95499C42.7291 9.16645 42.9357 8.38752 43.1152 7.62277C43.5654 7.4082 43.8555 7.57477 45.0449 6.68888C45.4142 6.41373 45.8397 6.02893 46.1272 5.68793C46.1313 5.68293 46.1371 5.6759 46.1412 5.67089C46.1455 5.66603 46.1512 5.65886 46.1554 5.65386L46.7593 4.92143C47.2897 4.14208 47.9201 3.16398 47.4418 2.14829C47.3262 1.90289 47.0806 1.60881 46.8462 1.43858C45.963 0.797282 44.4857 1.16464 43.8081 1.9905C43.6532 2.17925 43.535 2.36544 43.4056 2.58218C43.281 2.7908 43.1598 2.97158 43.0427 3.18224C42.9248 3.39411 42.8264 3.6053 42.7035 3.80582C42.3754 4.34084 41.7612 5.91427 41.5796 6.56246C41.1566 8.07261 40.8064 10.0445 40.8064 11.6194L40.8062 11.6197Z" fill="#222222"/>
<path fill-rule="evenodd" clip-rule="evenodd" d="M28.4831 24.0747C28.4831 23.9955 28.5326 24.0697 28.5017 24.0747C28.5012 24.0747 28.4831 24.1612 28.4831 24.0747ZM32.1644 23.9507C32.1675 23.8107 32.1955 23.8276 32.1955 23.6719C32.1955 22.6984 32.1608 21.4801 31.6331 20.6674C31.1702 19.9546 30.415 20.273 29.9487 20.8828C29.7192 21.1829 29.5594 21.4723 29.3775 21.8336C29.2009 22.1844 29.0556 22.5117 28.9164 22.8938C28.8515 23.0715 28.7787 23.2437 28.713 23.4354L28.5244 23.9918C28.5223 23.9964 28.5185 24.0063 28.5143 24.0128C28.5143 23.8079 28.6078 23.305 28.6078 22.8664C28.6078 21.9622 28.5361 20.7286 27.4223 20.7286C26.9048 20.7286 26.3536 21.0368 25.9774 21.3385C25.896 21.4038 25.6594 21.5951 25.6128 21.6581C25.6406 21.7763 25.6787 21.7878 25.7063 21.906C25.8063 21.8795 25.8565 21.8265 25.9429 21.7691C26.0284 21.7125 26.0882 21.6815 26.1845 21.6372C26.6105 21.441 27.4845 21.2671 27.4845 21.9988C27.4845 22.6259 27.4239 23.8949 27.3372 24.5481C27.3194 24.6823 27.3 24.9207 27.2972 25.035C27.2921 25.2309 27.2754 25.3349 27.2657 25.5304C27.2601 25.6421 27.2412 25.8819 27.2219 26.0136C27.1786 26.3095 27.1571 26.6579 27.1405 26.9552C27.1146 27.4178 26.9069 28.1486 27.7605 28.2946C27.9241 28.3226 28.0386 28.3054 28.1997 28.255C28.3533 28.207 28.4102 28.1636 28.517 28.0434C28.6773 27.8633 28.7158 27.5501 28.7633 27.2655C28.8827 26.55 29.164 25.3971 29.3377 24.7067C29.4123 24.4103 29.4811 24.1865 29.5615 23.9066C29.6417 23.6277 29.7133 23.3615 29.815 23.1049C29.9523 22.7583 30.2519 21.8749 30.6668 21.8749C31.2073 21.8749 31.2284 23.0059 31.2284 23.486C31.2284 23.7869 31.1887 24.0793 31.1484 24.3672C31.0202 25.2831 30.854 26.3733 30.854 27.297C30.854 27.6733 31.1411 28.0097 31.5091 28.0097C32.3815 28.0097 32.3269 27.4951 32.3917 27.0582C32.4119 26.9228 32.445 26.724 32.4733 26.5816C32.6027 25.9333 32.7511 25.3956 32.9198 24.7943C33.0998 24.1523 33.7845 21.7822 34.4105 21.7822C34.631 21.7822 34.6663 22.0102 34.6903 22.186C34.767 22.7503 34.6908 23.0337 34.6901 23.4852C34.6889 24.3845 34.6787 24.5102 34.5572 25.4601C34.484 26.0329 34.1785 27.5742 34.9311 27.8335C35.345 27.9762 35.7692 27.9395 36.1471 27.7517C36.3889 27.6317 36.4375 27.5787 36.6301 27.4257L36.8923 27.1595C36.8965 27.1548 36.9026 27.1479 36.907 27.1432L37.3741 26.5846C37.3659 26.4863 37.333 26.3652 37.3117 26.2747C37.2059 26.345 37.1332 26.437 37.0392 26.5308C36.9579 26.6119 36.8394 26.7072 36.7508 26.7711C36.4917 26.9576 36.3169 26.9874 35.8766 26.9874C35.8151 26.7251 35.7982 26.9912 35.7493 26.4009C35.7314 26.184 35.7378 25.9886 35.7518 25.717C35.7612 25.5346 35.8024 25.2833 35.8317 25.0838C35.9711 24.1316 36.3232 21.9012 36.1352 20.9371C36.0322 20.4092 35.7894 19.8613 35.1593 19.8613C34.8291 19.8613 34.6576 19.903 34.4407 20.0152C34.3402 20.0673 34.2752 20.1273 34.1875 20.1975C34.0952 20.2713 34.0365 20.3386 33.9567 20.433C33.878 20.5259 33.8287 20.5744 33.7615 20.6729C33.3087 21.3352 32.9894 21.9507 32.6768 22.694C32.586 22.9099 32.5089 23.0944 32.4228 23.3092L32.2406 23.779C32.2244 23.8213 32.2236 23.8305 32.2068 23.8693L32.1645 23.9513L32.1644 23.9507Z" fill="#222222"/>
<path fill-rule="evenodd" clip-rule="evenodd" d="M36.5632 15.0278C36.2324 15.0278 36.2512 14.4422 36.2512 14.2223C36.2512 13.9529 36.3733 13.5485 36.46 13.3453C36.6891 12.8086 36.9537 12.613 37.2738 12.2635C37.3191 12.214 37.3625 12.1679 37.4147 12.1246C37.5185 12.0385 37.604 11.9759 37.7078 11.8891C37.7982 11.8135 37.9204 11.6797 38.0294 11.6509C38.0294 12.5331 37.7546 13.701 37.2051 14.4573C37.0905 14.6149 36.7845 15.028 36.5631 15.028L36.5632 15.0278ZM35.6897 9.17206L35.565 8.36649L34.1932 8.14434C34.1924 8.3965 34.1529 8.64272 34.1204 8.8838C33.8941 10.5611 33.7215 12.4524 33.4964 14.1199C33.2646 15.8379 33.0933 17.5979 32.8761 19.3287C32.8519 19.5223 32.7883 19.8835 32.7883 20.078C33.1796 20.0457 33.7036 19.573 33.871 19.2942C34.1686 18.7983 34.2685 18.5806 34.4351 17.9955C34.577 17.497 34.6568 16.9999 34.7321 16.4314L34.9099 14.7181C34.9345 13.9394 35.1338 12.1388 35.3737 11.4298C35.5875 10.7981 35.7345 10.5306 36.1403 10.0843L36.1866 10.0373C36.2199 10.0068 36.2188 10.0109 36.2551 9.98143C37.3085 9.12744 38.0296 9.43342 38.0296 10.8762C38.0296 10.9644 37.7142 11.1373 37.5927 11.217C37.0682 11.5604 36.5462 12.057 36.15 12.5416C36.0347 12.6826 35.7876 13.1542 35.7206 13.3234C35.5134 13.8468 35.2328 14.994 35.6968 15.4859C36.1296 15.9448 36.7741 15.8472 37.2814 15.5862C37.5162 15.4655 37.9252 15.1403 38.1119 14.9239C38.1177 14.917 38.1345 14.8971 38.1403 14.8902C38.7144 14.2121 38.982 13.5892 39.2276 12.5308C39.3385 12.0527 39.4334 11.2793 39.4334 10.7214C39.512 10.7006 39.7048 10.5886 39.7826 10.5415C39.9087 10.4653 40.0246 10.4161 40.151 10.3496C40.151 10.154 40.1698 10.0638 40.1822 9.91585C40.0089 9.91963 39.5012 10.1262 39.3711 10.1948C39.3711 9.46263 39.0425 8.56727 38.4981 8.1803C37.7354 7.63825 36.942 8.05781 36.3269 8.53469C36.1651 8.66016 36.0167 8.7759 35.89 8.93734C35.8346 9.00778 35.7473 9.13042 35.6897 9.1722V9.17206Z" fill="#222222"/>
<path fill-rule="evenodd" clip-rule="evenodd" d="M62.613 22.2774C62.5378 22.2275 62.4718 22.1606 62.3866 22.0995C62.2955 22.0342 62.2105 21.9962 62.1038 21.9465C61.8957 21.8497 61.6729 21.7996 61.3972 21.7804C61.1033 21.7598 60.9672 21.7539 60.6958 21.8607C60.2872 22.0213 60.0985 22.2363 60.3442 22.6715C60.4028 22.7752 60.4745 22.8315 60.5854 22.8968C60.7949 23.0202 61.1736 23.0942 61.4898 23.021C61.5698 23.3626 61.5521 23.5086 61.5521 23.8576C61.5521 24.3639 61.3467 24.7689 61.1627 25.113C60.7057 25.9685 59.935 25.8907 59.6887 25.6461C59.2732 25.2335 59.7632 23.1162 59.8457 22.5037C59.8948 22.1392 59.9399 21.7136 59.9865 21.3422C60.0127 21.1322 60.0306 20.9691 60.0601 20.7647C60.1285 20.2929 60.2039 19.5181 59.8869 19.1288C59.7241 18.9288 59.3447 18.8384 59.0251 18.8384C58.4961 18.8384 58.1253 19.2365 57.8287 19.509C57.7262 19.6032 57.4408 19.8124 57.4028 19.9537C57.5241 19.9859 57.5192 20.0408 57.6212 20.1086C57.8875 19.7137 58.1305 19.6749 58.5259 19.6749C58.7398 19.6749 58.7147 19.7806 58.6921 19.9295L58.5885 21.2552C58.5771 21.5198 58.5343 21.8591 58.5036 22.1004C58.4644 22.408 58.4618 22.67 58.4193 22.9772L58.2147 24.664C58.1673 25.2075 58.0458 25.621 58.5803 26.0961C58.7455 26.2429 58.9884 26.3302 59.2176 26.3926C59.537 26.4796 59.666 26.4428 59.8588 26.4687C60.4504 26.5487 61.1712 26.3308 61.5934 26.0984C61.7879 25.9913 62.0156 25.8014 62.1727 25.6514L62.2334 25.5877C62.5291 25.2648 62.7381 24.98 62.9243 24.5699C63.3905 23.543 62.8776 22.833 62.8622 22.6492L63.9229 22.0605L63.7933 23.2951C63.7762 23.4563 63.7398 23.7482 63.7347 23.9184C63.7183 24.4629 63.7061 24.6891 63.7355 25.2519C63.7515 25.5584 63.8159 25.9988 64.0295 26.2301C64.5854 26.8323 65.7945 26.2843 66.3254 25.9336C66.397 25.8863 66.4507 25.8502 66.5311 25.7972C66.6129 25.7432 66.662 25.7001 66.7305 25.6544C66.7147 25.5872 66.6652 25.465 66.637 25.4065C66.1933 25.6396 64.9523 26.0601 64.9523 25.1897C64.9523 24.8319 65.1188 24.0339 65.1943 23.6638L66.1379 19.2099C65.8431 19.1856 64.6083 18.5363 64.5779 18.5283L64.2995 19.6771C64.2207 20.0678 64.144 20.5085 64.0878 20.892C64.0083 21.4344 64.0882 21.2537 63.4772 21.7107C63.1722 21.9388 62.9099 22.0795 62.6126 22.2773L62.613 22.2774Z" fill="#222222"/>
<path fill-rule="evenodd" clip-rule="evenodd" d="M52.474 11.4954C52.2243 11.3294 52.3795 11.3306 51.871 11.1029C51.28 10.8381 50.103 10.8698 50.103 11.4954C50.103 11.9175 50.5466 12.2079 50.9765 12.2079H51.3509L51.3821 12.9205C51.3821 13.6174 50.7915 15.1364 49.799 14.9269C49.5866 14.882 49.4712 14.8341 49.4039 14.6993C49.1261 14.1421 49.4459 12.9853 49.5549 12.4381C49.6608 11.9064 50.1045 9.48389 50.046 8.9494C50.0141 8.65898 50.004 8.38788 49.7832 8.18791C49.6529 8.06987 49.2539 7.93223 49.0111 7.93223C48.644 7.93223 48.2783 8.15519 48.0678 8.32758C47.9981 8.38464 47.9458 8.4202 47.8802 8.48212L47.3577 8.98564C47.4117 9.06582 47.4685 9.14303 47.576 9.17155C47.6319 8.96387 48.0464 8.7378 48.3248 8.7378C48.3952 8.7378 48.5676 8.78377 48.6369 8.79973C48.6369 9.73159 48.1122 12.9969 47.9634 14.0487C47.9152 14.3895 47.9401 14.6767 48.1367 14.9663C48.631 15.6939 49.9791 15.7285 50.8658 15.475C51.4208 15.3164 51.6315 15.0932 51.9922 14.7965C52.4199 14.4444 52.9421 13.5529 52.9421 12.8895C52.9421 12.2046 52.7291 12.1083 52.7237 11.8671C52.8252 11.8436 52.8926 11.8022 52.9829 11.7527C53.0802 11.6994 53.1472 11.6628 53.2447 11.6099C53.3955 11.5281 53.6218 11.3779 53.7844 11.3403C53.7531 11.7135 53.6262 12.3171 53.5983 12.7357C53.5548 13.3859 53.3724 14.6888 53.6691 15.3278C54.1495 16.3625 55.9405 15.3675 56.4986 14.9964C56.4828 14.9292 56.4332 14.8069 56.405 14.7485C56.0845 14.917 55.2822 15.144 54.9394 14.9336L54.7876 14.7745C54.6121 14.4454 54.9198 13.3597 55.0072 12.9885C55.0629 12.7526 55.1125 12.508 55.1759 12.2576L55.7123 10.0327C55.771 9.79947 56.0283 8.68561 56.093 8.55176C55.7494 8.38802 55.32 8.24253 54.9401 8.02363C54.8204 7.95467 54.6888 7.87355 54.5644 7.80811C54.5454 7.88896 54.5123 7.96508 54.4816 8.06676C54.4471 8.18088 54.4296 8.23104 54.3947 8.35232C54.2056 9.01255 54.0764 9.73957 53.9503 10.4206C53.9204 10.5819 53.9218 10.5714 53.8044 10.6475C53.3667 10.9313 53.2329 11.0533 52.7105 11.3582C52.6134 11.4148 52.5591 11.4386 52.4741 11.4951L52.474 11.4954Z" fill="#222222"/>
<path fill-rule="evenodd" clip-rule="evenodd" d="M15.0683 1.643C15.0683 2.31891 15.1539 2.92411 15.653 3.41694C15.7712 3.53363 15.7746 3.54945 15.9279 3.63963C16.9857 4.26173 18.1692 3.94696 19.3864 3.70075L22.0333 3.16924C23.4681 2.89396 25.4636 2.68073 26.8791 3.08095C27.2801 3.19426 27.8806 3.4548 28.0098 3.88098C28.0463 4.00159 28.0122 3.97793 28.0461 4.05959C28.2249 3.96562 28.3602 3.87963 28.5233 3.75889L28.9436 3.3707C29.269 3.01646 29.4811 2.73279 29.4811 2.2006C29.4811 1.75022 29.0713 1.24616 28.8001 1.04903C28.0573 0.509138 26.3695 0.613114 25.4549 0.742644C24.3241 0.902867 23.4472 1.06268 22.3184 1.34568L20.8641 1.7294C20.0208 1.96304 17.2667 2.61137 16.596 1.86055C16.5642 1.82513 16.4962 1.744 16.4718 1.70506C16.2872 1.4099 16.273 0.920038 16.6452 0.66882C17.1733 0.312409 18.1208 0.341749 18.7804 0.341749V0.279823C18.6033 0.238855 18.4236 0.148806 18.2439 0.0999953C17.0339 -0.228292 15.0679 0.243046 15.0679 1.643H15.0683Z" fill="#222222"/>
<path fill-rule="evenodd" clip-rule="evenodd" d="M61.4897 12.1464L61.5069 12.0797L61.4897 12.1464ZM61.4897 12.1464L61.3156 12.841C61.2599 13.0896 61.2286 13.322 61.1902 13.5839C61.0951 14.2328 61.1846 15.2741 61.7481 15.6078C62.4379 16.0162 63.1257 15.5627 63.4864 15.0278C63.3954 14.9616 63.4483 15.008 63.3929 14.9039C63.1082 14.9697 62.0767 15.7248 62.3273 14.2793C62.4398 13.631 62.6095 13.0403 62.7623 12.4497L63.6386 9.41613C63.6769 9.29349 63.7565 9.08324 63.7673 8.9552C63.3929 8.77672 63.118 8.63868 62.8079 8.32783C62.7189 8.23859 62.6491 8.12204 62.5194 8.08756C62.4909 8.20912 62.3831 8.38949 62.3216 8.51077C61.9555 9.23197 61.5044 10.4448 61.126 11.2273C60.8545 11.7882 60.7085 12.1726 60.3927 12.7607L60.1543 13.1747C60.1031 13.253 60.0796 13.3129 60.03 13.3921C59.9222 13.5646 59.2611 14.5441 58.9882 14.0733C58.9381 13.9869 58.8901 13.6744 58.8996 13.5103C58.9214 13.1376 58.986 12.7346 59.0278 12.3658C59.1602 11.1985 59.7543 8.9264 59.3594 8.09676C59.0865 7.52374 57.9855 7.42544 57.3324 8.07945C57.115 8.29714 56.8864 8.51753 56.7168 8.76929C56.8678 8.86975 56.8683 8.91991 56.9664 8.9552C57.0603 8.77875 57.1925 8.65666 57.393 8.57337C57.6625 8.46155 57.7809 8.48819 58.0582 8.55241C58.0582 9.42302 57.556 12.658 57.4125 13.7359C57.3727 14.0347 57.3388 14.302 57.3397 14.6261C57.3405 14.979 57.4243 15.1674 57.5733 15.3857C57.8878 15.8467 58.7664 15.7576 59.0673 15.5964C59.4299 15.4021 59.8256 14.9489 60.0546 14.6251C60.3298 14.2359 60.5732 13.8656 60.8143 13.4275C60.9347 13.2086 61.033 13.0131 61.1464 12.7968L61.49 12.1465L61.4897 12.1464Z" fill="#222222"/>
<path fill-rule="evenodd" clip-rule="evenodd" d="M71.7849 22.6186C71.7849 22.4606 71.7844 22.5673 71.8161 22.5257C71.8161 22.6896 71.8158 22.572 71.7849 22.6186ZM71.8161 22.4637L71.8254 22.4729C71.8247 22.4723 71.813 22.4668 71.8161 22.4637ZM71.7849 22.6186L71.5919 23.6973C71.5054 24.3804 71.5087 25.627 72.1688 25.9863C72.3806 26.1015 72.5804 26.1573 72.8439 26.1203C73.0899 26.0857 73.2862 25.9805 73.4456 25.8484C73.5058 25.7985 73.5066 25.8 73.5695 25.7545C73.6629 25.6873 73.6146 25.7286 73.6839 25.6512C73.7491 25.5782 73.8223 25.4855 73.875 25.4073C73.8524 25.3112 73.8351 25.3175 73.8127 25.2214C73.7208 25.2457 73.5442 25.3588 73.4346 25.4035C72.8053 25.6604 72.6091 25.4188 72.7112 24.6852C72.8679 23.5583 73.2624 22.1485 73.5383 21.0449L74 19.2726C73.7022 19.2038 73.2441 18.9086 73.0406 18.7073C72.9789 18.6463 72.972 18.6394 72.9073 18.5918C72.8274 18.533 72.812 18.5422 72.7834 18.4361L72.3688 19.2637C72.2535 19.5514 72.134 19.8198 72.0311 20.1056L71.0043 22.618C70.7864 23.1112 70.6522 23.3465 70.4085 23.7923C70.3998 23.8082 70.3783 23.8503 70.3647 23.8727C70.2056 24.1366 70.1246 24.2478 69.9057 24.4703C69.7381 24.6406 69.7632 24.6327 69.4453 24.6327C69.3325 24.4655 69.2879 24.4127 69.2882 24.1072C69.2884 23.8876 69.2705 23.6492 69.3025 23.4375L69.6628 20.3873C69.722 19.7012 69.9188 18.5221 69.1836 18.2314C68.5699 17.9887 68.0644 18.1462 67.6094 18.534L66.9495 19.2728C67.008 19.3596 67.084 19.4591 67.199 19.4896C67.2599 19.2634 67.5503 19.073 67.7955 19.0272C68.4729 18.9004 68.2537 19.1853 68.2284 19.9853C68.2078 20.635 67.9595 22.5652 67.8825 23.3596C67.852 23.6729 67.8224 23.9807 67.7868 24.3179C67.7537 24.6315 67.6992 24.9948 67.755 25.3197C67.8563 25.9096 68.2156 26.3012 68.9595 26.1953C69.3741 26.1362 69.3479 26.176 69.7218 25.8988C69.9246 25.7485 70.0269 25.6097 70.1265 25.4952C70.3257 25.2663 70.4133 25.1123 70.5725 24.8847L70.8804 24.385C71.1264 23.9344 71.4903 23.2499 71.6819 22.7954C71.7023 22.7468 71.7015 22.7465 71.7215 22.7107C71.7247 22.7046 71.7292 22.6967 71.7328 22.691L71.7849 22.6188V22.6186Z" fill="#222222"/>
<path fill-rule="evenodd" clip-rule="evenodd" d="M23.9597 3.68753C23.9624 3.80976 23.9908 3.82382 23.9908 4.05935C23.9908 4.80517 23.6287 6.05179 23.4017 6.75853C23.3341 6.96932 23.2817 7.18147 23.2147 7.37833C22.8231 8.53004 22.1594 10.8321 21.9292 11.9264C21.6048 13.4683 21.3669 15.0009 21.7758 16.6074C21.9193 17.1715 22.0389 17.578 22.3307 18.0082C22.6154 18.4279 22.9195 18.6951 23.3772 18.9207C23.7168 19.0883 23.7053 19.0808 24.0776 19.1857C25.1419 19.4858 25.9216 19.3438 26.7129 18.5672L27.1008 18.0539C27.5734 17.201 27.4925 16.1402 27.0481 15.306C26.9525 15.3313 26.8623 15.4111 26.7674 15.461C26.7674 15.9824 27.0275 16.6696 26.4247 17.5064C25.9163 18.2122 24.7708 18.2604 24.0155 17.7912C23.18 17.2721 22.8053 16.2721 22.8053 15.306C22.8053 13.7675 23.1691 12.3719 23.5676 10.9818C23.6294 10.7661 23.6782 10.5583 23.745 10.3524C23.9885 9.59941 24.2543 8.63956 24.5018 7.91281C24.7428 7.20526 25.2699 5.3556 25.2699 4.67888C25.2699 4.39034 25.298 4.08666 25.1063 3.85005C24.8732 3.56219 24.2989 3.65224 23.9597 3.68753Z" fill="#222222"/>
<path fill-rule="evenodd" clip-rule="evenodd" d="M52.7547 23.2689C52.7547 23.0692 52.8072 22.8684 52.8165 22.6796C52.8698 21.5926 52.9295 20.4335 52.1622 19.5506C52.0221 19.3895 51.646 19.2721 51.4754 19.2721C51.0417 19.2721 50.5739 19.6228 50.3347 19.9672C50.2911 20.0299 50.267 20.0809 50.2275 20.1396C50.2881 20.2297 50.2907 20.1811 50.3211 20.2946C50.4275 20.2663 50.3923 20.2599 50.4793 20.2038C50.5279 20.1725 50.5883 20.1364 50.6343 20.11C51.6944 19.5026 51.5058 20.7003 51.4157 21.4745C51.3326 22.1875 51.2215 22.7633 51.1269 23.4495C51.0987 23.6535 51.058 23.8642 51.0207 24.0877L50.7446 25.6725C50.6756 26.0472 50.6539 26.3561 50.9837 26.6076C51.3 26.8488 51.8135 26.9828 52.0276 26.5439C52.4448 25.689 52.6471 24.3069 52.7263 24.2325L53.9183 23.5573C54.0192 23.5009 54.0698 23.4515 54.1895 23.4238C54.1895 24.4322 54.0678 26.0496 55.2498 26.3986C55.4639 26.4618 55.7989 26.5776 56.0746 26.5374C56.4773 26.4787 56.7788 26.3223 57.0172 26.0463L57.0602 25.996C57.177 25.8558 57.7224 25.1362 57.3403 25.035C57.2967 25.1972 57.0737 25.4145 56.9256 25.4906C56.6605 25.6269 56.2585 25.63 56.0427 25.3941L55.9734 25.308C55.3764 24.4659 55.9614 21.4772 56.2059 20.6552C56.2547 20.4914 56.311 20.3405 56.3734 20.2017C56.4189 20.1004 56.5605 19.9112 56.5605 19.7678C56.5605 19.3316 55.8996 18.9932 55.4374 18.9932C55.1539 19.4135 55.0544 19.6714 54.907 20.2014C54.781 20.6538 54.6555 21.0946 54.5218 21.554C54.355 22.1276 54.3793 22.2706 53.933 22.7044C53.637 22.992 53.192 23.2689 52.7544 23.2689H52.7547Z" fill="#222222"/>
<path fill-rule="evenodd" clip-rule="evenodd" d="M21.0894 24.9422C21.0894 24.5322 21.1906 24.0285 21.27 23.6963C21.4128 23.0984 21.7479 22.1116 22.0748 21.6141C22.2437 21.3571 22.5353 20.9763 22.8988 20.9763C23.1793 20.9763 23.5111 21.1122 23.6174 21.378C23.7641 21.7447 23.6099 22.2301 23.4618 22.5577C23.4444 22.5964 23.4236 22.6455 23.4027 22.6848L22.7807 23.7092C22.725 23.7919 22.6941 23.8242 22.6369 23.9071C22.5624 24.0153 22.5604 24.0229 22.4699 24.1131C22.1548 24.4266 21.8289 24.942 21.0895 24.942L21.0894 24.9422ZM19.2487 24.4465C19.2487 25.1754 19.2816 25.5406 19.5558 26.2173C19.9954 27.303 20.9694 28.5361 22.2749 28.5361C23.1186 28.5361 23.9751 28.3264 24.5602 27.7384C24.8106 27.4868 25.0072 27.2895 25.1819 26.9615C25.4942 26.3747 25.8536 25.8497 25.284 25.4857C24.9303 25.2598 24.5771 25.371 24.3651 25.3758C24.3729 25.7229 24.4898 25.9405 24.4898 26.5841C24.4898 26.7356 23.9069 27.4711 23.5021 27.71C22.7838 28.1339 22.1428 27.6735 21.7126 27.1116C21.4078 26.7133 21.2141 26.265 21.2141 25.5618C21.5475 25.5894 21.5115 25.5933 21.8968 25.4653C22.4372 25.2856 23.1615 24.8498 23.551 24.4746C23.5556 24.4701 23.5621 24.4638 23.5666 24.4592C23.5711 24.4546 23.5775 24.448 23.5819 24.4434C23.9159 24.0918 23.9523 24.1385 24.2844 23.6539C24.7809 22.9296 24.854 22.0076 24.3905 21.2299C23.9661 20.5178 23.4986 20.1627 22.4703 20.3033C22.0509 20.3606 21.7085 20.5306 21.3804 20.7079C20.8703 20.9838 20.1713 21.6466 19.8939 22.144C19.5038 22.843 19.2485 23.5811 19.2485 24.4465H19.2487Z" fill="#222222"/>
<path fill-rule="evenodd" clip-rule="evenodd" d="M28.2337 11.9601H28.0776C28.0776 11.1907 28.8519 8.97593 29.5517 8.43577C29.8398 8.21348 30.2467 8.16075 30.5596 8.41089C31.2118 8.93239 30.2079 10.3409 29.8345 10.7925L29.4504 11.2474C29.3001 11.4267 29.3498 11.3626 29.1793 11.5049C29.0467 11.6155 28.9458 11.7108 28.7856 11.7954C28.6447 11.8698 28.4333 11.96 28.2338 11.96L28.2337 11.9601ZM31.8525 12.6417C31.5964 12.6417 31.3195 12.9032 31.2711 13.1177C31.1963 13.4482 31.3672 13.3621 31.0738 14.0062C30.9749 14.2233 30.9081 14.2994 30.7483 14.4576C30.6914 14.514 30.6747 14.5479 30.6103 14.5994C30.1385 14.9765 29.5078 15.0057 29.0258 14.6436C28.3886 14.165 28.14 13.432 28.14 12.549C28.5258 12.7328 29.2571 12.3829 29.5648 12.2289C29.7569 12.1327 29.8989 12.0698 30.0685 11.9546C31.2101 11.1789 32.1737 10.0649 31.525 8.62966C31.0764 7.63695 30.2911 7.37735 29.2189 7.64087C28.8708 7.72646 28.3878 7.97497 28.1397 8.14926L27.6522 8.53258C27.4644 8.69199 27.2925 8.88763 27.1455 9.08274C27.0838 9.16468 27.041 9.23715 26.9813 9.32247C26.4626 10.0638 26.1757 11.4098 26.3391 12.4784C26.4253 13.0419 26.7095 13.6778 26.9987 14.147C27.4911 14.9462 28.3449 15.653 29.5175 15.5283C30.1228 15.4639 30.1571 15.4679 30.7518 15.205C30.8535 15.1601 30.9069 15.1362 30.9963 15.076C31.073 15.0245 31.1666 14.9616 31.2336 14.9089L31.4126 14.746C31.8139 14.4096 32.5275 13.3645 32.3229 12.9811C32.2359 12.8182 32.0988 12.642 31.8524 12.642L31.8525 12.6417Z" fill="#222222"/>
<path fill-rule="evenodd" clip-rule="evenodd" d="M17.9385 12.4558C18.1408 12.4558 18.3691 12.5843 18.5063 12.6665C18.6422 12.748 18.8942 12.8551 18.9368 13.0135H19.0304C19.0701 12.844 19.1402 12.6625 19.1865 12.487L19.6231 10.7827C19.7186 10.4036 19.8105 10.027 19.9105 9.64291C20.0062 9.27528 20.086 8.87696 20.1911 8.49634C20.4087 7.70888 21.0851 4.81811 21.4841 4.26551C21.5714 4.14477 21.5138 4.27214 21.5573 4.15234C21.1791 4.15234 20.4301 4.16248 20.1567 4.24848C19.9836 4.30297 20.0056 4.45656 19.9292 4.76619L18.2317 11.2599C18.179 11.4705 18.1359 11.6423 18.0767 11.8494C18.029 12.0162 17.9423 12.2846 17.9385 12.4558Z" fill="#222222"/>
<path fill-rule="evenodd" clip-rule="evenodd" d="M60.8035 7.5915C61.784 6.93939 62.7832 6.01875 63.0877 4.84081C63.1622 4.55268 63.239 4.06498 63.2363 3.71803C63.2348 3.52887 63.2681 3.47235 63.2681 3.31592C63.144 3.34891 63.1742 3.41908 63.0558 3.50778C62.7636 3.72641 61.8397 3.91868 61.3151 4.78456C61.0917 5.15341 60.9588 5.5735 60.8744 6.05093C60.8201 6.35839 60.7221 7.39572 60.8036 7.59164L60.8035 7.5915Z" fill="#222222"/>
<path fill-rule="evenodd" clip-rule="evenodd" d="M70.7242 18.2496C70.8394 18.2191 70.8875 18.1565 70.9697 18.0908C71.0483 18.028 71.1182 17.9769 71.1968 17.9135L71.8305 17.3345C72.809 16.2597 73.064 15.7121 73.064 13.9121C72.9148 13.9657 73.1024 13.9713 72.6101 14.2669L72.0593 14.5564C71.8519 14.6846 71.7613 14.7616 71.586 14.9229L71.5539 14.9531C71.5494 14.9575 71.543 14.9642 71.5385 14.9688C71.5372 14.9701 71.5035 15.008 71.4944 15.018C70.6739 15.9082 70.7242 17.0505 70.7242 18.2499V18.2496Z" fill="#222222"/>
<path fill-rule="evenodd" clip-rule="evenodd" d="M43.2084 38.5434C43.4456 38.4885 43.6882 38.4544 43.9488 38.4087C44.474 38.3168 44.6766 39.0078 44.0234 39.1358C43.8042 39.1788 43.5516 39.2054 43.3333 39.256C43.3077 39.1467 43.2905 39.0319 43.2711 38.915C43.2504 38.7903 43.212 38.6712 43.2084 38.5434ZM43.0837 37.7688C43.6395 37.7688 44.1444 37.4018 44.1444 37.9857C44.1444 38.2312 43.8355 38.2151 43.476 38.2826C43.1567 38.3423 43.1718 38.3511 43.142 38.2074C43.1156 38.0798 43.0836 37.917 43.0836 37.7688H43.0837ZM42.803 37.6138C42.803 37.8276 43.1097 39.2733 43.1149 39.5038C43.5657 39.3995 44.2361 39.3786 44.4655 39.172C44.7625 38.9045 44.6926 38.3457 44.2693 38.2335C44.3181 38.1417 44.3941 38.0565 44.3941 37.9237C44.3941 37.1229 43.3296 37.5704 42.803 37.6138Z" fill="#222222"/>
<path fill-rule="evenodd" clip-rule="evenodd" d="M52.5364 36.2201C52.5058 36.1061 52.2552 35.7144 52.2244 35.6004C52.325 35.5476 52.3988 35.4976 52.505 35.4454C52.7887 35.3057 53.2241 34.9775 53.4215 35.373C53.4781 35.4866 53.4835 35.5864 53.427 35.7096C53.3428 35.8933 52.6392 36.2117 52.5363 36.2202L52.5364 36.2201ZM51.8501 34.9189C51.9767 34.8523 52.5311 34.547 52.6301 34.547C52.7982 34.547 52.9421 34.5435 52.9421 34.8568C52.9421 35.0235 52.8116 35.0619 52.578 35.1767C52.4214 35.2536 52.2682 35.3755 52.0998 35.4145L51.8503 34.9189H51.8501ZM51.5382 34.8569L52.4429 36.53C52.5657 36.4655 52.6946 36.4082 52.8177 36.3445C53.2707 36.1103 53.6908 35.9636 53.6908 35.5076C53.6908 35.217 53.4267 34.9809 53.1292 34.9809C53.1845 34.7454 53.2242 34.6586 53.0451 34.4758C52.8914 34.3189 52.7754 34.2685 52.5246 34.3487L51.5381 34.8569H51.5382Z" fill="#222222"/>
<path fill-rule="evenodd" clip-rule="evenodd" d="M14.8499 35.8172L14.4178 35.3479C14.3225 35.2295 14.043 34.9884 14.0076 34.8568C13.8701 34.8599 13.8618 34.8878 13.6956 34.8878L13.8337 36.2998C13.8544 36.4497 13.8828 36.6339 13.8828 36.7777H14.1011C14.1011 36.2433 13.9451 35.699 13.9451 35.1666C13.9966 35.204 14.1034 35.3394 14.1717 35.4063C14.3793 35.6098 14.7157 36.1107 14.9121 36.1271L15.2141 35.5595C15.2718 35.4563 15.3105 35.3876 15.3701 35.2807L15.4963 35.0652C15.5433 35.0101 15.4923 35.0387 15.5673 35.0118C15.5673 35.3963 15.6456 35.8023 15.6868 36.1943C15.7011 36.3298 15.7233 36.4799 15.7233 36.5918L15.9729 36.5609L15.7545 34.6709C15.3426 34.6709 15.3808 34.8953 15.031 35.4705C14.9789 35.5563 14.871 35.7269 14.8498 35.8172H14.8499Z" fill="#222222"/>
<path fill-rule="evenodd" clip-rule="evenodd" d="M41.898 39.4111C41.4743 39.4111 41.1208 39.473 40.7125 39.473C40.7125 38.8163 40.6189 38.2888 40.6189 37.7999H40.3694C40.3694 38.2149 40.4941 39.3055 40.4941 39.7208C40.7283 39.6666 41.8052 39.6618 42.0852 39.597C42.1365 39.7031 42.1487 39.8709 42.1788 39.9998H42.366L42.3348 39.3801H42.1476L42.0227 37.707H41.7732L41.8674 38.9766C41.8666 39.1732 41.8979 39.2545 41.8979 39.4111H41.898Z" fill="#222222"/>
<path fill-rule="evenodd" clip-rule="evenodd" d="M36.6568 38.3266C36.6568 37.6839 37.4767 37.8629 37.8735 37.9547C37.8735 38.1411 37.8319 38.3541 37.8056 38.538C37.7552 38.8915 37.8701 38.8965 37.5134 38.8401C37.2153 38.793 36.6567 38.8276 36.6567 38.3266H36.6568ZM36.7816 38.9153C36.6737 39.0753 36.4313 39.2675 36.3137 39.4419C36.4341 39.4519 36.4365 39.4729 36.5944 39.4729C36.6249 39.3593 36.6955 39.3321 36.7742 39.2486C37.0741 38.93 36.8631 38.9775 37.3175 39.0334C37.475 39.0528 37.5518 39.0699 37.7175 39.0699C37.7175 39.2828 37.6705 39.4438 37.6552 39.6277L37.9039 39.6639C37.9048 39.5087 37.9398 39.3055 37.9577 39.1843L38.1544 37.7686C37.6302 37.7253 36.6146 37.3643 36.4328 38.1671C36.3562 38.5058 36.5241 38.7435 36.7818 38.915L36.7816 38.9153Z" fill="#222222"/>
<path fill-rule="evenodd" clip-rule="evenodd" d="M49.6348 36.4676C49.6348 36.2222 49.6329 36.0106 49.8609 35.8248C50.1628 35.5789 50.7008 35.5437 50.9506 35.8424C51.2321 36.1787 51.262 36.6169 50.9579 36.9452C50.5286 37.4084 49.6347 37.1281 49.6347 36.4676H49.6348ZM49.3853 36.3127C49.3853 36.7085 49.4993 36.9983 49.7945 37.2075C50.4545 37.6751 51.413 37.2264 51.413 36.3746C51.413 35.9147 50.9922 35.4141 50.5395 35.4141C50.1253 35.4141 49.8758 35.4626 49.594 35.8072C49.5598 35.849 49.5181 35.905 49.4909 35.9527C49.4438 36.0355 49.3853 36.1971 49.3853 36.3125V36.3127Z" fill="#222222"/>
<path fill-rule="evenodd" clip-rule="evenodd" d="M24.2405 37.0872C24.3668 37.09 24.4908 37.129 24.6149 37.1491L25.7379 37.366C25.7409 37.2299 25.759 37.2695 25.7691 37.1491L24.5212 36.9013C24.5606 36.7336 24.642 36.3999 24.6461 36.2197C24.9998 36.3015 25.3846 36.3548 25.7379 36.4366C25.7379 36.3142 25.7477 36.3108 25.7691 36.2197L24.7084 36.0338C24.7084 35.8405 24.7637 35.6393 24.8019 35.4761C25.0234 35.4761 25.3197 35.5622 25.5236 35.5959C26.2251 35.7113 25.9264 35.7315 26.0498 35.4761C25.5751 35.3663 25.059 35.3072 24.5836 35.1973C24.5836 35.3496 24.5388 35.5311 24.5083 35.6801L24.2405 37.0872Z" fill="#222222"/>
<path fill-rule="evenodd" clip-rule="evenodd" d="M45.0801 37.2114C45.0833 37.3553 45.1457 37.5327 45.1848 37.6652L45.4236 38.5743C45.4567 38.6985 45.5004 38.9406 45.5481 39.0393C45.8193 39.0334 46.7345 38.6985 47.0144 38.6985C46.9971 38.6246 46.9815 38.5427 46.9521 38.4816L45.7353 38.7914C45.6526 38.6199 45.6311 38.2812 45.5481 38.1098C45.7627 38.0601 46.4425 37.8619 46.6088 37.8619C46.6009 37.767 46.5793 37.7129 46.5465 37.645C46.2606 37.6687 45.7194 37.8878 45.4858 37.8929C45.47 37.7036 45.3769 37.5244 45.3609 37.3351C45.6229 37.3293 46.2946 37.0772 46.5465 37.0563L46.4798 36.8408C46.2565 36.8921 46.015 36.9636 45.7916 37.019C45.6644 37.0507 45.5709 37.0704 45.4437 37.1073C45.3359 37.1386 45.1588 37.1738 45.0804 37.2112L45.0801 37.2114Z" fill="#222222"/>
<path fill-rule="evenodd" clip-rule="evenodd" d="M17.6576 34.7946H17.72C17.7665 34.9931 18.1586 35.7852 18.1879 35.91H17.1896C17.2318 35.8306 17.2624 35.7438 17.3037 35.6516L17.6575 34.7946H17.6576ZM16.9401 36.4987C16.9627 36.402 17.0511 36.1268 17.1585 36.1268H18.2192C18.3102 36.1268 18.3305 36.2115 18.3656 36.2913C18.4123 36.3974 18.4106 36.4124 18.4688 36.4985H18.7183C18.6972 36.4202 18.6552 36.3678 18.6113 36.2641L18.0842 35.0836C18.0275 34.9628 17.8869 34.708 17.876 34.5776H17.5328L16.7265 36.3873C16.6616 36.5394 16.763 36.4985 16.9401 36.4985V36.4987Z" fill="#222222"/>
<path fill-rule="evenodd" clip-rule="evenodd" d="M26.9545 36.8087L27.0911 36.1078C27.1336 35.8781 27.0308 35.8443 27.7984 36.0326C27.9557 36.0713 28.0535 36.1304 28.1221 36.2687C28.2818 36.5907 28.0433 36.9813 27.7085 36.9605L26.9545 36.8086V36.8087ZM26.549 37.5213C26.6979 37.5213 26.6783 37.5424 26.7985 37.5523C26.8026 37.3722 26.8775 37.2002 26.892 37.0255C27.0242 37.0285 27.1577 37.0704 27.2854 37.0996C27.3778 37.1208 27.6308 37.1804 27.7032 37.1804C28.2544 37.1804 28.6554 36.5609 28.2566 36.0732C28.1572 35.9517 28.0682 35.8931 27.8995 35.8392L26.9232 35.6313C26.9232 35.8156 26.785 36.3628 26.7438 36.5686L26.5488 37.5214L26.549 37.5213Z" fill="#222222"/>
<path fill-rule="evenodd" clip-rule="evenodd" d="M34.9723 37.5213C34.9881 37.7091 35.0606 37.9199 35.0996 38.1074C35.1347 38.2767 35.2176 38.5145 35.2218 38.6987L34.2548 38.5128L34.8514 37.6182C34.9008 37.5487 34.877 37.5467 34.9723 37.5214V37.5213ZM33.662 39.0085L33.9107 39.0447C33.9396 38.9354 34.0672 38.7919 34.1301 38.6986L35.2844 38.9154C35.3132 39.0378 35.3674 39.1907 35.378 39.3182L35.6266 39.3545C35.6243 39.2028 35.5526 38.9897 35.5152 38.8411L35.1595 37.3354C35.0591 37.3121 34.9328 37.276 34.8162 37.2734L34.2488 38.1351C34.1843 38.2295 33.6858 38.9196 33.6619 39.0085H33.662Z" fill="#222222"/>
<path fill-rule="evenodd" clip-rule="evenodd" d="M31.3223 38.5124C31.6097 38.579 31.5492 38.5799 31.6369 38.1432C31.6636 38.0099 31.7164 37.8122 31.7278 37.6759C31.9351 37.6759 32.0171 37.7378 32.2583 37.7378L32.6611 38.7009C32.7348 38.8398 32.9698 38.8806 32.9466 38.7769C32.9093 38.6101 32.4941 37.8525 32.4766 37.6449C32.6619 37.5959 32.8128 37.2407 33.0113 37.1509C33.1226 37.1006 33.1729 37.1491 33.319 37.1491C33.3211 37.0548 33.3331 37.0362 33.3501 36.9632C33.1432 36.9154 33.0056 36.8217 32.7597 37.0584L32.4482 37.3997C32.444 37.4044 32.4378 37.4113 32.4333 37.4159C32.4289 37.4205 32.4226 37.4273 32.418 37.4317C32.4133 37.4362 32.4067 37.4425 32.4019 37.4469C32.397 37.4512 32.3901 37.4571 32.385 37.4612C32.2225 37.5915 32.0848 37.5269 31.7903 37.4589C31.7903 37.2465 31.9002 36.8809 31.9464 36.6843C31.8261 36.6743 31.8457 36.6533 31.6968 36.6533C31.6257 36.9561 31.5722 37.2691 31.5074 37.5806C31.4758 37.7319 31.4425 37.8701 31.4083 38.0399C31.3848 38.1571 31.3255 38.3772 31.3225 38.5123L31.3223 38.5124Z" fill="#222222"/>
<path fill-rule="evenodd" clip-rule="evenodd" d="M29.0134 37.2733C29.0134 37.5084 29.0782 37.6846 29.2062 37.8564C29.286 37.9636 29.4773 38.1195 29.6272 38.182C29.9327 38.3091 30.2811 38.2944 30.5734 38.1409C30.5645 38.0357 30.5495 38.0275 30.511 37.955C30.2811 38.0083 30.3535 38.0479 30.0431 38.0479C29.6342 38.0479 29.2631 37.7584 29.2631 37.3663V37.2113C29.2631 36.4872 30.1822 36.3242 30.5965 36.6927C30.6845 36.771 30.639 36.7737 30.7294 36.8395C30.834 36.7846 30.8175 36.8164 30.8854 36.7157C30.3653 35.9442 29.0136 36.245 29.0136 37.2734L29.0134 37.2733Z" fill="#222222"/>
<path fill-rule="evenodd" clip-rule="evenodd" d="M20.3095 36.5915C20.6606 36.5915 20.7128 36.5835 21.027 36.3746C20.9663 36.2846 20.9638 36.3331 20.9335 36.2197C20.8801 36.224 20.1993 36.6095 19.7784 36.1584C19.2916 35.6365 19.6461 34.669 20.552 34.8633C20.8356 34.9241 20.7747 34.9471 20.9647 35.0734C21.0553 35.0131 21.0065 35.0106 21.1207 34.9805C21.0512 34.7222 20.1783 34.349 19.6298 34.8939C19.4671 35.0555 19.3459 35.2731 19.3251 35.58C19.3125 35.7654 19.3899 35.9971 19.4845 36.1407C19.6495 36.391 19.9564 36.5916 20.3095 36.5916V36.5915Z" fill="#222222"/>
<path fill-rule="evenodd" clip-rule="evenodd" d="M21.9319 35.0117C22.1013 35.0509 22.4826 35.1046 22.6807 35.1046L22.4623 36.8087C22.6094 36.8087 22.6019 36.8142 22.7119 36.8396L22.8774 35.6098C22.8923 35.5085 22.9303 35.2888 22.9303 35.1665C23.1695 35.1665 23.5111 35.2135 23.7102 35.2594C23.7203 35.1391 23.7384 35.1787 23.7414 35.0425C23.4369 35.0174 23.074 34.9557 22.7526 34.9091C21.8926 34.7844 21.9319 34.7389 21.9319 35.0116V35.0117Z" fill="#222222"/>
<path fill-rule="evenodd" clip-rule="evenodd" d="M47.0457 36.6538L47.1124 36.8693C47.2349 36.8413 47.3708 36.7889 47.4864 36.7507C47.6051 36.7115 47.7513 36.6473 47.8568 36.6228L48.4184 38.234C48.4947 38.194 48.5615 38.1769 48.6368 38.1411L48.2267 36.9372C48.1859 36.8289 48.1252 36.6334 48.0752 36.5299C48.1883 36.5206 48.3552 36.4557 48.4587 36.4152C48.5799 36.3676 48.7207 36.3313 48.824 36.2821C48.7942 36.2206 48.7792 36.1714 48.7616 36.0962C48.6597 36.1046 48.0391 36.3277 47.9193 36.375C47.7812 36.4296 47.1808 36.6508 47.0458 36.6538H47.0457Z" fill="#222222"/>
</svg>
