<svg width="14" height="20" viewBox="0 0 14 20" fill="none" xmlns="http://www.w3.org/2000/svg">
<path d="M8.66364 15.3984L11.2383 11.8867C12.3895 10.3172 13.4227 8.74023 13.4227 6.71127C13.4227 3.01987 10.4266 0.014801 6.73874 0H6.71051C3.01056 0 0 3.01056 0 6.71127C0 8.73978 1.03317 10.3172 2.18445 11.8867L4.75891 15.3984H1.76529L0.0300598 20H13.3926L11.6574 15.3984H8.66364ZM3.12927 11.1937C2.05856 9.73328 1.17188 8.38791 1.17188 6.71127C1.17188 3.66516 3.64258 1.18591 6.68472 1.17188H6.71127C9.76562 1.17188 12.2508 3.65707 12.2508 6.71127C12.2508 8.38791 11.3641 9.73358 10.2934 11.1937C10.2934 11.1937 6.85593 15.8942 6.716 16.0855L3.12927 11.1937ZM1.72455 18.8281L2.57584 16.5703H5.61798L6.70044 18.0464C6.70044 18.0464 7.60513 16.8559 7.81296 16.5703H10.8469L11.698 18.8281H1.72455Z" fill="black"/>
<path d="M10.8446 6.71127C10.8446 4.43207 8.99017 2.57812 6.71127 2.57812C4.43237 2.57812 2.57812 4.43207 2.57812 6.71127C2.57812 8.99017 4.43237 10.8441 6.71127 10.8441C8.99017 10.8441 10.8446 8.99017 10.8446 6.71127ZM6.71127 9.67224C5.07858 9.67224 3.75 8.34412 3.75 6.71127C3.75 5.07858 5.07858 3.75 6.71127 3.75C8.34412 3.75 9.6727 5.07858 9.6727 6.71127C9.6727 8.34412 8.34412 9.67224 6.71127 9.67224Z" fill="black"/>
</svg>
