<svg width="20" height="20" viewBox="0 0 20 20" fill="none" xmlns="http://www.w3.org/2000/svg">
<path d="M15.8147 12.3892C15.4047 11.9628 14.9101 11.7349 14.3859 11.7349C13.866 11.7349 13.3671 11.9586 12.9402 12.385L11.6044 13.7146C11.4945 13.6555 11.3846 13.6006 11.2789 13.5458C11.1267 13.4698 10.983 13.398 10.8604 13.3221C9.6091 12.5285 8.47196 11.4943 7.38132 10.1562C6.85291 9.48926 6.49782 8.92785 6.23995 8.358C6.58659 8.04141 6.90786 7.71216 7.22068 7.39558C7.33905 7.27739 7.45741 7.15497 7.57577 7.03678C8.4635 6.15034 8.4635 5.00219 7.57577 4.11575L6.42173 2.96338C6.29068 2.83253 6.15541 2.69745 6.02859 2.56238C5.77495 2.30067 5.50863 2.03051 5.23386 1.77725C4.82381 1.37202 4.33345 1.15674 3.81772 1.15674C3.30199 1.15674 2.80317 1.37202 2.38045 1.77725C2.37622 1.78147 2.37622 1.78147 2.37199 1.78569L0.934715 3.23354C0.393623 3.77384 0.0850311 4.43234 0.0173946 5.19637C-0.0840601 6.42894 0.279486 7.57709 0.558487 8.32845C1.24331 10.1731 2.26631 11.8826 3.79236 13.7146C5.64391 15.9223 7.87168 17.6656 10.4165 18.894C11.3888 19.3541 12.6866 19.8986 14.1365 19.9914C14.2253 19.9957 14.3183 19.9999 14.4028 19.9999C15.3793 19.9999 16.1994 19.6495 16.842 18.9531C16.8462 18.9446 16.8547 18.9404 16.8589 18.9319C17.0787 18.666 17.3323 18.4254 17.5987 18.1679C17.7804 17.9949 17.9664 17.8133 18.1482 17.6234C18.5667 17.1886 18.7865 16.6821 18.7865 16.1629C18.7865 15.6395 18.5625 15.1371 18.1355 14.715L15.8147 12.3892ZM17.3281 16.834C17.3239 16.834 17.3239 16.8383 17.3281 16.834C17.1632 17.0113 16.9942 17.1717 16.8124 17.349C16.5376 17.6107 16.2586 17.8851 15.9965 18.1932C15.5696 18.6491 15.0665 18.8644 14.4071 18.8644C14.3437 18.8644 14.276 18.8644 14.2126 18.8602C12.9571 18.78 11.7904 18.2903 10.9153 17.8724C8.52269 16.7158 6.42173 15.0738 4.67586 12.9928C3.23436 11.2579 2.27054 9.65389 1.63222 7.93166C1.23908 6.8806 1.09535 6.0617 1.15876 5.28923C1.20103 4.79536 1.39126 4.38591 1.74213 4.03555L3.18363 2.59615C3.39077 2.40197 3.61058 2.29645 3.82618 2.29645C4.09249 2.29645 4.30809 2.45685 4.44336 2.59192C4.44759 2.59615 4.45181 2.60037 4.45604 2.60459C4.7139 2.84519 4.95909 3.09424 5.21695 3.36017C5.348 3.49525 5.48327 3.63032 5.61854 3.76962L6.77259 4.92199C7.22068 5.36943 7.22068 5.7831 6.77259 6.23054C6.65 6.35296 6.53163 6.47537 6.40904 6.59356C6.05395 6.95658 5.71577 7.29427 5.348 7.62352C5.33954 7.63196 5.33109 7.63618 5.32686 7.64462C4.96331 8.00764 5.03095 8.36222 5.10704 8.60282C5.11127 8.61549 5.1155 8.62815 5.11972 8.64081C5.41986 9.36685 5.84259 10.0507 6.48514 10.8654L6.48936 10.8696C7.65609 12.3048 8.88623 13.4234 10.2432 14.2803C10.4165 14.39 10.5941 14.4786 10.7631 14.5631C10.9153 14.639 11.0591 14.7108 11.1816 14.7868C11.1986 14.7952 11.2155 14.8079 11.2324 14.8163C11.3761 14.8881 11.5114 14.9219 11.6509 14.9219C12.0017 14.9219 12.2216 14.7024 12.2934 14.6306L13.7391 13.187C13.8829 13.0435 14.1112 12.8704 14.3775 12.8704C14.6396 12.8704 14.8552 13.035 14.9862 13.1785C14.9904 13.1828 14.9904 13.1828 14.9947 13.187L17.3239 15.5128C17.7593 15.9434 17.7593 16.3866 17.3281 16.834Z" fill="#222222"/>
<path d="M10.8097 4.7574C11.9172 4.94313 12.9233 5.46656 13.7265 6.26857C14.5297 7.07059 15.0496 8.07522 15.2399 9.18116C15.2864 9.45975 15.5273 9.65392 15.8021 9.65392C15.8359 9.65392 15.8655 9.6497 15.8993 9.64548C16.2121 9.59483 16.4193 9.29935 16.3685 8.98698C16.1403 7.64888 15.5062 6.42897 14.5381 5.46233C13.5701 4.49569 12.3484 3.86252 11.0083 3.63458C10.6955 3.58393 10.4038 3.79076 10.3489 4.09891C10.2939 4.40705 10.4968 4.70675 10.8097 4.7574Z" fill="#222222"/>
<path d="M19.9913 8.82242C19.615 6.61899 18.5751 4.61395 16.9772 3.01836C15.3793 1.42277 13.3713 0.384369 11.1647 0.00868772C10.8561 -0.0461871 10.5644 0.16487 10.5095 0.473013C10.4587 0.785377 10.6659 1.07664 10.9787 1.13151C12.9486 1.46498 14.7452 2.39785 16.174 3.82037C17.6028 5.24712 18.5328 7.0411 18.8668 9.00815C18.9133 9.28675 19.1543 9.48092 19.429 9.48092C19.4628 9.48092 19.4924 9.4767 19.5263 9.47248C19.8349 9.42604 20.0462 9.13056 19.9913 8.82242Z" fill="#222222"/>
</svg>
