<svg width="55" height="55" viewBox="0 0 55 55" fill="none" xmlns="http://www.w3.org/2000/svg">
<g clip-path="url(#clip0)">
<path d="M25.2077 52.6723C11.3092 52.6723 0 41.3635 0 27.465C0 13.5665 11.3092 2.25732 25.2077 2.25732C30.0407 2.25732 34.7428 3.63446 38.8058 6.2423C39.6035 6.75589 39.8372 7.81917 39.3236 8.61893C38.8083 9.4187 37.7471 9.6499 36.9474 9.13672C33.4412 6.88387 29.3806 5.69472 25.2077 5.69472C13.2041 5.69472 3.43739 15.4614 3.43739 27.465C3.43739 39.4682 13.2041 49.2349 25.2077 49.2349C37.2109 49.2349 46.9776 39.4682 46.9776 27.465C46.9776 26.7475 46.9432 26.0371 46.8769 25.3385C46.7854 24.3918 47.4773 23.553 48.4214 23.4616C49.3701 23.3743 50.2064 24.062 50.2983 25.0061C50.3759 25.8151 50.415 26.6355 50.415 27.465C50.415 41.3635 39.1062 52.6723 25.2077 52.6723Z" fill="#49A975"/>
<path d="M28.0719 33.194C27.6322 33.194 27.192 33.0266 26.8576 32.6901L16.5454 22.3779C15.874 21.7061 15.874 20.6177 16.5454 19.9463C17.2168 19.275 18.3052 19.275 18.9766 19.9463L28.0744 29.0442L52.0648 5.05333C52.7366 4.38196 53.8251 4.38196 54.4964 5.05333C55.1678 5.72469 55.1678 6.81315 54.4964 7.48451L29.2888 32.6922C28.9518 33.0266 28.5121 33.194 28.0719 33.194Z" fill="#49A975"/>
</g>
<defs>
<clipPath id="clip0">
<rect width="55" height="55" fill="white"/>
</clipPath>
</defs>
</svg>
