<svg width="16" height="17" viewBox="0 0 16 17" fill="none" xmlns="http://www.w3.org/2000/svg">
<g clip-path="url(#clip0)">
<path d="M13.7142 5.64261H10.8571C10.5415 5.64261 10.2856 5.89845 10.2856 6.21406C10.2856 6.52966 10.5415 6.7855 10.8571 6.7855H13.7142C14.0298 6.7855 14.2857 7.04134 14.2857 7.35694V14.7856C14.2857 15.1012 14.0298 15.357 13.7142 15.357H2.28559C1.96998 15.357 1.71414 15.1012 1.71414 14.7856V7.35691C1.71414 7.04131 1.96998 6.78547 2.28559 6.78547H5.14274C5.45835 6.78547 5.71419 6.52963 5.71419 6.21402C5.71419 5.89842 5.45835 5.64258 5.14274 5.64258H2.28559C1.33881 5.64258 0.571289 6.4101 0.571289 7.35688V14.7855C0.571289 15.7323 1.33881 16.4998 2.28559 16.4998H13.7142C14.661 16.4998 15.4285 15.7323 15.4285 14.7855V7.35691C15.4285 6.41013 14.661 5.64261 13.7142 5.64261Z" fill="#7D7D7D"/>
<path d="M11.2609 3.52447L8.40371 0.66732C8.18058 0.444227 7.81884 0.444227 7.59571 0.66732L4.73853 3.52447C4.51928 3.75148 4.52558 4.11323 4.75259 4.33247C4.97404 4.54635 5.3251 4.54635 5.54656 4.33247L7.4283 2.45073V11.9286C7.4283 12.2442 7.68414 12.5 7.99975 12.5C8.31535 12.5 8.57119 12.2442 8.57119 11.9286V2.45076L10.4529 4.3325C10.6799 4.55175 11.0417 4.54545 11.2609 4.31844C11.4747 4.09699 11.4747 3.74593 11.2609 3.52447Z" fill="#7D7D7D"/>
</g>
<defs>
<clipPath id="clip0">
<rect width="16" height="16" fill="white" transform="translate(0 0.5)"/>
</clipPath>
</defs>
</svg>
