<svg width="74" height="40" viewBox="0 0 74 40" fill="none" xmlns="http://www.w3.org/2000/svg">
<path fill-rule="evenodd" clip-rule="evenodd" d="M9.07848 34.1751C8.98849 34.1751 8.83615 34.1144 8.78264 34.0661C8.36345 33.6878 9.17773 31.79 10.6073 31.7584C10.6043 31.8925 10.581 32.0116 10.5769 32.1929C10.561 32.911 9.99161 34.175 9.07862 34.175L9.07848 34.1751ZM14.6004 19.6441C14.6004 18.6205 15.0558 16.8621 15.3531 15.899C15.401 15.7437 15.4242 15.6356 15.4944 15.4816C15.6808 15.0726 15.7499 14.7658 16.1049 14.4148C16.537 13.9876 17.1587 14.159 17.1587 15.1824C17.1587 16.5526 16.5573 17.7599 15.7689 18.6975L15.1267 19.2989C15.0091 19.3858 14.7343 19.6084 14.6005 19.6439L14.6004 19.6441ZM12.7597 20.0778C11.8663 20.0778 11.4867 19.9141 10.7422 19.5719C10.5524 19.4846 10.418 19.4101 10.2141 19.3527C9.9091 19.2668 9.47562 19.0209 9.25656 18.8474L9.05493 18.6758C8.90163 18.5318 8.60252 18.2665 8.54806 18.0639H8.48571C8.46774 18.279 8.37053 18.5682 8.33377 18.7805L7.89552 21.0098C7.79695 21.4994 7.69784 22.0014 7.58715 22.4696C7.41725 23.1887 7.26517 23.8535 7.03155 24.5513C6.67934 25.6034 6.30535 26.6828 5.56078 27.5212C5.33028 27.7807 4.82614 28.1333 4.36774 28.1333C4.06114 28.1333 3.75277 27.8906 3.59512 27.7233C3.02821 27.1219 2.93277 25.6421 2.93277 24.7871C2.93277 22.7518 3.3427 20.5905 3.59702 18.5997C3.70199 17.7786 4.09327 15.434 3.50267 14.7714C3.23869 14.4751 2.73373 14.377 2.30882 14.377C1.75743 14.377 1.21599 14.768 0.900539 15.0231C0.623212 15.2475 0.0354751 15.7842 0.000213623 16.2049C0.10205 16.2584 0.183056 16.3083 0.280944 16.3598C0.478354 15.9514 0.655887 15.7037 1.06609 15.4355C1.73347 14.9991 2.08051 15.5002 2.09058 16.2978C2.09385 16.5634 2.14871 16.7271 2.10351 17.0237C2.03762 17.456 2.05968 17.9107 1.97486 18.4141L1.47575 21.7602C1.22075 23.5117 0.239965 28.0455 2.20453 29.2593C2.79581 29.6246 3.28879 29.6206 3.99334 29.6206C4.29122 29.6206 4.76174 29.398 4.95466 29.274C5.26003 29.0779 5.43484 28.9167 5.68576 28.6679C6.13027 28.2271 6.50562 27.6929 6.7903 27.1313C6.83741 27.0382 6.85687 27.0198 6.90466 26.9351C7.51268 25.8562 7.88422 24.6681 8.2416 23.4916L8.26733 24.1058C8.26733 25.3653 8.46012 26.6967 9.0258 27.6281C9.14792 27.8293 9.27413 28.0123 9.44009 28.1771C9.45983 28.1967 9.48175 28.2145 9.50543 28.2362L9.87874 28.5161C10.4859 28.841 10.8682 28.6334 11.2934 28.5983C11.0651 29.0269 10.8727 30.111 10.7872 30.6363C10.7537 30.8425 10.6819 30.8226 10.503 30.9116C10.4256 30.95 10.3947 30.9655 10.313 31.0017C10.1691 31.0657 10.0816 31.1211 9.94164 31.1905C9.43995 31.4393 8.97665 31.7138 8.53459 32.0549C8.30818 32.2294 8.13309 32.4109 7.94821 32.6188C7.4634 33.1647 7.33147 33.8671 7.60717 34.5519C7.82595 35.0952 8.39313 35.5694 9.01613 35.5694C9.41245 35.5694 9.73634 35.4229 9.98943 35.2656C11.1177 34.5641 11.4206 32.9508 11.5878 31.6787C11.6371 31.3035 11.5729 31.363 12.4138 31.1978C14.1412 30.8583 16.3291 30.9825 18.0457 31.2183C18.5721 31.2907 19.0595 31.3605 19.5385 31.4398C22.6719 31.9588 26.405 32.8403 29.562 33.5376C30.5182 33.7488 31.465 33.9463 32.422 34.1364C33.9792 34.4458 35.3508 34.6345 36.9329 34.7998C39.3448 35.0517 42.1867 34.8399 44.5008 34.1882C45.6033 33.8778 46.6053 33.5377 47.643 33.1262C48.3044 32.8638 48.9734 32.5684 49.604 32.2542L50.9873 31.552C51.0787 31.507 51.1238 31.4804 51.2112 31.4336L52.1373 30.9281C52.22 30.8787 52.2846 30.8353 52.3708 30.7881C52.5371 30.6968 52.6481 30.6349 52.8076 30.5403C52.9678 30.4455 53.1023 30.3715 53.2602 30.2772C53.3381 30.2306 53.4029 30.201 53.479 30.1536L54.9951 29.2117C55.1496 29.1087 55.7435 28.7873 55.8124 28.5981C55.3743 28.6995 53.9937 29.6848 53.4199 30.002L52.3988 30.5681C51.9099 30.8367 51.3942 31.0531 50.8935 31.3039C50.7489 31.3764 50.6145 31.4324 50.4673 31.5004L49.5688 31.8783C48.1616 32.452 46.7404 32.869 45.1665 33.2073C43.1441 33.642 41.4176 33.7104 39.3401 33.7104C36.1535 33.7104 32.089 32.8967 29.0078 32.1362L25.7769 31.379C25.2622 31.2714 24.694 31.1256 24.1701 31.0228C22.5711 30.7093 20.6351 30.2763 19.0305 30.1785C18.4244 30.1414 17.813 30.0541 17.1587 30.0545C16.4765 30.0549 15.9271 30.0166 15.2243 30.0543C15.0675 30.0627 14.9534 30.0795 14.7556 30.0845C14.6333 30.0877 14.4401 30.1059 14.2932 30.1211C13.5781 30.1954 12.8079 30.2968 12.1125 30.434C12.0033 30.4555 11.8139 30.5097 11.6991 30.5192L11.8861 29.6824C11.9586 29.4101 12.0362 29.1441 12.1182 28.8595C12.1987 28.5799 12.2684 28.3227 12.3505 28.0676C12.4291 27.8228 12.5035 27.4737 12.604 27.2659C12.4784 27.1825 12.3495 27.0193 12.033 27.2566C11.8112 27.4229 11.6027 27.6114 11.3294 27.7043C10.1242 28.1133 9.76493 25.4764 9.76493 24.7873C9.76493 23.8938 9.81081 23.0631 9.93865 22.2023C9.98589 21.8842 10.0274 21.6134 10.077 21.3173C10.1233 21.0399 10.2267 20.6961 10.233 20.4188C10.3096 20.4553 10.5758 20.5302 10.683 20.5606C10.8603 20.6109 11.0036 20.6542 11.1687 20.6979C11.6301 20.8198 12.2598 20.9064 12.76 20.7906C12.76 21.1612 12.695 21.4692 12.6968 21.8124L12.6663 22.9905C12.6663 24.2792 12.838 25.5972 13.1613 26.5577C13.4155 27.3131 13.8332 28.3084 14.6352 28.626C15.324 28.8987 16.1193 28.5438 16.6534 28.1895C17.0261 27.9424 17.3675 27.6314 17.6056 27.2454C17.9825 26.6345 18.2899 25.9824 18.4698 25.284C18.6492 24.5872 18.625 23.7629 18.4507 23.0708C18.3932 22.8424 18.2025 22.4483 18.1882 22.2779C18.4386 22.2572 18.9178 21.7797 18.9682 21.5654C18.8017 21.5212 18.854 21.4237 18.6874 21.3795L18.5685 21.5401C18.5165 21.5898 18.4568 21.6315 18.3864 21.6691C18.2695 21.7315 18.0749 21.7821 17.9075 21.7821C17.8378 21.7821 17.7246 21.6039 17.6751 21.5482L17.5144 21.3978C16.6488 20.6818 15.4117 21.703 15.4117 22.3088C15.4117 22.418 15.4559 22.4617 15.5068 22.5241L15.6731 22.6998C16.2182 23.1147 16.6018 22.7662 16.6907 22.7425C16.7346 22.9292 16.869 23.201 16.9403 23.3931C17.3648 24.536 17.2368 26.06 16.7624 27.1511C16.4115 27.9578 15.8521 28.4243 15.1736 27.7504C15.0925 27.6699 15.0833 27.6598 15.0144 27.5676C14.309 26.6226 14.2886 25.1791 14.2886 23.9509C14.2886 23.3039 14.3079 22.7399 14.3909 22.1005L14.5398 20.7922C14.5574 20.6672 14.5977 20.4819 14.6004 20.3569C15.1695 20.3098 16.2176 19.4764 16.6163 19.0437C17.159 18.4545 17.6173 17.8125 18.0109 17.1136C18.5022 16.2414 18.8477 14.9772 18.0246 14.1678C17.4937 13.6458 16.8393 13.4801 16.055 13.715C15.8093 13.7886 15.6295 13.8597 15.4408 13.9726C15.3482 14.0279 15.2653 14.0737 15.1744 14.1417C14.9305 14.3237 14.7003 14.5683 14.5481 14.852C14.3378 15.2439 14.1732 15.6121 13.9944 16.0371C13.945 16.1546 13.9094 16.2146 13.8603 16.3376L13.5046 17.3166C13.2414 18.101 13.0185 18.9264 12.9024 19.7548C12.8835 19.8901 12.8983 20.0779 12.7598 20.0779L12.7597 20.0778Z" fill="#222222"/>
<path fill-rule="evenodd" clip-rule="evenodd" d="M47.2951 21.689C47.1966 21.8738 47.1465 22.0185 47.0634 22.2335C46.7406 23.0688 46.2966 24.6189 46.2961 25.5001C46.2958 25.8565 46.3377 26.2045 46.528 26.4783C46.5599 26.5242 46.6748 26.6667 46.7109 26.6995C46.8401 26.8173 47.0327 26.9037 47.2199 26.9686C47.8138 27.1743 48.4146 26.9935 48.8335 26.5322L49.2703 25.9435C49.5942 25.3987 49.826 24.8767 49.9778 24.2295C49.8809 24.1787 49.8502 24.1298 49.7594 24.1057C49.6918 24.3938 49.4403 24.8479 49.2675 25.0423C47.9145 26.5645 47.5385 25.0334 47.7087 23.6801C47.8143 22.8395 48.119 21.6112 48.4799 20.883C48.6586 20.5225 48.8974 20.2725 48.5512 19.8838C48.4544 19.7751 48.3075 19.5963 48.1373 19.5823C48.045 19.9755 47.3968 20.7347 47.0146 21.0079C46.6668 21.2568 45.5217 21.8825 45.2049 21.2862C45.1075 21.1028 45.159 20.8619 45.2047 20.6667C45.3085 20.6644 45.4804 20.6218 45.5577 20.5835C45.872 20.4285 46.0483 20.1093 46.0774 19.7363C46.1174 19.2232 45.8924 18.706 45.3561 18.6545C45.2494 18.6442 45.0831 18.6984 45.0074 18.7357L44.7862 18.9188C44.7816 18.9231 44.7748 18.9295 44.7701 18.9339C44.7655 18.9384 44.7588 18.9448 44.7543 18.9492L44.6769 19.0272C44.6708 19.0339 44.6533 19.0531 44.6473 19.06C44.2701 19.5029 44.1305 20.5118 44.2687 21.1005C44.1516 21.1101 44.1113 21.1419 43.9952 21.1696C43.9342 21.1842 43.7725 21.2132 43.703 21.2203C43.2909 21.2631 42.9026 21.1854 42.5519 21.0085C42.3903 20.9269 42.2879 20.8223 42.1473 20.7287C41.9133 20.8516 41.7115 20.979 41.4787 21.1181C41.3121 21.2176 40.9311 21.3948 40.8371 21.5343C41.0149 21.6191 41.0674 21.569 41.2478 21.7151L41.5549 22.0297C42.3081 23.1035 42.2 24.8484 41.6176 25.9654C41.3294 26.518 40.7574 27.0008 40.0624 26.8273C39.874 26.7803 39.7834 26.7435 39.633 26.6341L39.529 26.5515C38.9977 26.1138 38.8274 25.1452 38.9425 24.2692C39.0493 23.4559 39.2417 22.5401 39.6337 21.8883C39.7897 21.6287 39.9435 21.3838 40.1582 21.17C40.6033 20.7271 41.2594 20.413 41.9291 20.4495C42.1263 20.4603 42.2924 20.5291 42.4594 20.5429C42.5097 20.3282 42.5636 20.0805 42.4851 19.8357C42.1199 18.6969 40.2481 19.0694 39.4742 19.5302C39.0899 19.7591 38.7532 20.045 38.4704 20.3923C37.9575 21.0227 37.6155 21.738 37.5005 22.5584C37.3134 23.8946 37.5425 25.5369 38.3407 26.5852C38.5381 26.8444 38.9705 27.1721 39.2763 27.3291C39.8452 27.621 40.6771 27.566 41.2607 27.2223C41.524 27.0672 41.7555 26.8968 41.9681 26.6855C42.5503 26.1073 42.9636 25.398 43.27 24.6323C43.3112 24.5293 43.3582 24.4241 43.3917 24.3196C43.5714 23.7587 43.6943 23.136 43.6009 22.5382C43.5781 22.3914 43.5301 22.3081 43.5198 22.1851C43.5568 22.1675 43.5884 22.1596 43.6292 22.1389C43.6648 22.121 43.7128 22.0881 43.7447 22.0677C43.9593 21.9305 44.1553 21.734 44.3621 21.5965C44.4094 22.1598 44.9726 22.6005 45.7148 22.4131C46.4269 22.2335 47.0307 21.7505 47.2947 21.6894L47.2951 21.689Z" fill="#222222"/>
<path fill-rule="evenodd" clip-rule="evenodd" d="M43.2083 6.87923C43.2083 6.36962 43.716 4.96074 43.9453 4.32702C43.9936 4.19357 44.0338 4.08527 44.0779 3.9629C44.1596 3.73575 44.2556 3.53686 44.3491 3.30268C44.5175 2.88055 45.1244 1.70505 45.6418 1.70505H45.7978C46.2264 1.70505 46.2657 2.28712 46.2657 2.63447C46.2657 3.4149 45.6973 4.60352 45.2365 5.23738C44.742 5.91735 44.2656 6.30256 43.5337 6.73753C43.4051 6.81406 43.3684 6.84218 43.2083 6.87923ZM40.8062 11.6197C40.8062 13.8195 41.4415 17.3017 44.5059 15.4797C44.7996 15.3052 44.7453 15.3142 44.9376 15.1648C45.0132 15.1062 45.0216 15.1024 45.0888 15.036C45.138 14.9872 45.1662 14.9597 45.2108 14.9092L45.574 14.4643C45.7188 14.2518 45.8295 14.0587 45.9676 13.8328C46.3531 13.2017 46.7026 12.2623 46.7026 11.4335C46.7026 11.1545 46.6709 10.8937 46.6315 10.6366C46.594 10.3906 46.5078 10.1491 46.4531 9.91535C46.6159 9.90196 46.8189 9.76648 46.9402 9.68644C47.0231 9.63168 47.0834 9.5945 47.1527 9.52567L47.3267 9.32665C47.2966 9.28203 47.1473 9.10707 47.1083 9.07881C46.9685 9.1717 46.9771 9.22159 46.7756 9.30596C46.6576 9.35545 46.4547 9.38857 46.2973 9.38857C46.1688 9.38857 46.0695 9.08746 45.9045 8.94211C44.9145 8.06907 43.7079 9.22335 43.7079 9.63655C43.7079 9.84815 44.1422 10.4583 44.7255 10.2754C44.8498 10.2365 44.8248 10.2206 44.9246 10.1943C45.0688 10.8087 45.2366 11.1402 45.2366 11.9293C45.2366 12.3518 45.1557 12.6943 45.0783 13.0423C44.9684 13.5364 44.7718 14.0952 44.5259 14.5387C44.4287 14.7141 44.3402 14.8685 44.1993 15.0199L44.0486 15.1801C43.8712 15.3494 43.7119 15.3994 43.4895 15.3994C43.0761 15.3994 42.7219 14.8539 42.5753 14.5104C42.0515 13.2835 42.387 11.1537 42.5934 9.95496C42.7291 9.16642 42.9358 8.38748 43.1152 7.62274C43.5654 7.40816 43.8556 7.57474 45.0449 6.68885C45.4143 6.4137 45.8397 6.0289 46.1273 5.6879C46.1314 5.6829 46.1372 5.67587 46.1413 5.67086C46.1455 5.666 46.1512 5.65883 46.1555 5.65383L46.7594 4.9214C47.2898 4.14205 47.9202 3.16395 47.4419 2.14826C47.3263 1.90286 47.0807 1.60878 46.8462 1.43855C45.9631 0.797251 44.4858 1.16461 43.8082 1.99047C43.6533 2.17922 43.5351 2.36541 43.4056 2.58215C43.281 2.79077 43.1599 2.97155 43.0428 3.1822C42.9249 3.39408 42.8265 3.60527 42.7035 3.80579C42.3754 4.34081 41.7613 5.91424 41.5796 6.56243C41.1566 8.07258 40.8065 10.0445 40.8065 11.6194L40.8062 11.6197Z" fill="#222222"/>
<path fill-rule="evenodd" clip-rule="evenodd" d="M28.4831 24.0747C28.4831 23.9955 28.5326 24.0697 28.5017 24.0747C28.5012 24.0747 28.4831 24.1612 28.4831 24.0747ZM32.1644 23.9507C32.1675 23.8107 32.1955 23.8276 32.1955 23.6719C32.1955 22.6984 32.1608 21.4801 31.6331 20.6674C31.1702 19.9546 30.415 20.273 29.9487 20.8828C29.7192 21.1829 29.5594 21.4723 29.3775 21.8336C29.2009 22.1844 29.0556 22.5117 28.9164 22.8938C28.8515 23.0715 28.7787 23.2437 28.713 23.4354L28.5244 23.9918C28.5223 23.9964 28.5185 24.0063 28.5143 24.0128C28.5143 23.8079 28.6078 23.305 28.6078 22.8664C28.6078 21.9622 28.5361 20.7286 27.4223 20.7286C26.9048 20.7286 26.3536 21.0368 25.9774 21.3385C25.896 21.4038 25.6594 21.5951 25.6128 21.6581C25.6406 21.7763 25.6787 21.7878 25.7063 21.906C25.8063 21.8795 25.8565 21.8265 25.9429 21.7691C26.0284 21.7125 26.0882 21.6815 26.1845 21.6372C26.6105 21.441 27.4845 21.2671 27.4845 21.9988C27.4845 22.6259 27.4239 23.8949 27.3372 24.5481C27.3194 24.6823 27.3 24.9207 27.2972 25.035C27.2921 25.2309 27.2754 25.3349 27.2657 25.5304C27.2601 25.6421 27.2412 25.8819 27.2219 26.0136C27.1786 26.3095 27.1571 26.6579 27.1405 26.9552C27.1146 27.4178 26.9069 28.1486 27.7605 28.2946C27.9241 28.3226 28.0386 28.3054 28.1997 28.255C28.3533 28.207 28.4102 28.1636 28.517 28.0434C28.6773 27.8633 28.7158 27.5501 28.7633 27.2655C28.8827 26.55 29.164 25.3971 29.3377 24.7067C29.4123 24.4103 29.4811 24.1865 29.5615 23.9066C29.6417 23.6277 29.7133 23.3615 29.815 23.1049C29.9523 22.7583 30.2519 21.8749 30.6668 21.8749C31.2073 21.8749 31.2284 23.0059 31.2284 23.486C31.2284 23.7869 31.1887 24.0793 31.1484 24.3672C31.0202 25.2831 30.854 26.3733 30.854 27.297C30.854 27.6733 31.1411 28.0097 31.5091 28.0097C32.3815 28.0097 32.3269 27.4951 32.3917 27.0582C32.4119 26.9228 32.445 26.724 32.4733 26.5816C32.6027 25.9333 32.7511 25.3956 32.9198 24.7943C33.0998 24.1523 33.7845 21.7822 34.4105 21.7822C34.631 21.7822 34.6663 22.0102 34.6903 22.186C34.767 22.7503 34.6908 23.0337 34.6901 23.4852C34.6889 24.3845 34.6787 24.5102 34.5572 25.4601C34.484 26.0329 34.1785 27.5742 34.9311 27.8335C35.345 27.9762 35.7692 27.9395 36.1471 27.7517C36.3889 27.6317 36.4375 27.5787 36.6301 27.4257L36.8923 27.1595C36.8965 27.1548 36.9026 27.1479 36.907 27.1432L37.3741 26.5846C37.3659 26.4863 37.333 26.3652 37.3117 26.2747C37.2059 26.345 37.1332 26.437 37.0392 26.5308C36.9579 26.6119 36.8394 26.7072 36.7508 26.7711C36.4917 26.9576 36.3169 26.9874 35.8766 26.9874C35.8151 26.7251 35.7982 26.9912 35.7493 26.4009C35.7314 26.184 35.7378 25.9886 35.7518 25.717C35.7612 25.5346 35.8024 25.2833 35.8317 25.0838C35.9711 24.1316 36.3232 21.9012 36.1352 20.9371C36.0322 20.4092 35.7894 19.8613 35.1593 19.8613C34.8291 19.8613 34.6576 19.903 34.4407 20.0152C34.3402 20.0673 34.2752 20.1273 34.1875 20.1975C34.0952 20.2713 34.0365 20.3386 33.9567 20.433C33.878 20.5259 33.8287 20.5744 33.7615 20.6729C33.3087 21.3352 32.9894 21.9507 32.6768 22.694C32.586 22.9099 32.5089 23.0944 32.4228 23.3092L32.2406 23.779C32.2244 23.8213 32.2236 23.8305 32.2068 23.8693L32.1645 23.9513L32.1644 23.9507Z" fill="#222222"/>
<path fill-rule="evenodd" clip-rule="evenodd" d="M36.5633 15.0277C36.2324 15.0277 36.2512 14.4422 36.2512 14.2222C36.2512 13.9528 36.3734 13.5484 36.4601 13.3452C36.6892 12.8086 36.9537 12.6129 37.2738 12.2634C37.3192 12.2139 37.3626 12.1678 37.4147 12.1245C37.5186 12.0384 37.6041 11.9758 37.7078 11.889C37.7982 11.8134 37.9205 11.6796 38.0294 11.6508C38.0294 12.533 37.7547 13.7009 37.2052 14.4572C37.0906 14.6148 36.7845 15.0279 36.5631 15.0279L36.5633 15.0277ZM35.6898 9.17197L35.5651 8.3664L34.1933 8.14425C34.1925 8.39641 34.153 8.64263 34.1204 8.88371C33.8942 10.561 33.7215 12.4523 33.4965 14.1198C33.2646 15.8378 33.0934 17.5978 32.8762 19.3286C32.852 19.5222 32.7884 19.8834 32.7884 20.0779C33.1797 20.0456 33.7037 19.5729 33.871 19.2941C34.1686 18.7982 34.2686 18.5805 34.4352 17.9955C34.5771 17.4969 34.6568 16.9998 34.7321 16.4313L34.9099 14.718C34.9346 13.9393 35.1339 12.1387 35.3738 11.4297C35.5875 10.798 35.7346 10.5306 36.1404 10.0842L36.1867 10.0372C36.2199 10.0068 36.2188 10.0108 36.2552 9.98133C37.3085 9.12735 38.0297 9.43333 38.0297 10.8761C38.0297 10.9643 37.7142 11.1372 37.5928 11.2169C37.0682 11.5603 36.5463 12.0569 36.1501 12.5415C36.0348 12.6825 35.7877 13.1542 35.7207 13.3233C35.5135 13.8467 35.2329 14.9939 35.6968 15.4858C36.1297 15.9447 36.7742 15.8471 37.2814 15.5862C37.5163 15.4654 37.9253 15.1402 38.1119 14.9238C38.1178 14.9169 38.1345 14.897 38.1404 14.8901C38.7145 14.212 38.982 13.5891 39.2276 12.5307C39.3386 12.0526 39.4335 11.2792 39.4335 10.7213C39.512 10.7005 39.7048 10.5886 39.7827 10.5414C39.9088 10.4652 40.0246 10.416 40.1511 10.3495C40.1511 10.1539 40.1699 10.0637 40.1823 9.91576C40.009 9.91954 39.5013 10.1261 39.3711 10.1947C39.3711 9.46254 39.0426 8.56718 38.4982 8.18021C37.7355 7.63816 36.942 8.05771 36.3269 8.5346C36.1652 8.66007 36.0168 8.77581 35.89 8.93725C35.8346 9.00769 35.7474 9.13033 35.6898 9.17211V9.17197Z" fill="#222222"/>
<path fill-rule="evenodd" clip-rule="evenodd" d="M62.613 22.2777C62.5378 22.2278 62.4718 22.1609 62.3866 22.0997C62.2955 22.0344 62.2105 21.9964 62.1038 21.9468C61.8958 21.85 61.6729 21.7998 61.3972 21.7806C61.1033 21.7601 60.9673 21.7541 60.6958 21.861C60.2872 22.0216 60.0985 22.2366 60.3443 22.6718C60.4028 22.7755 60.4746 22.8318 60.5854 22.8971C60.7949 23.0205 61.1737 23.0945 61.4898 23.0213C61.5698 23.3629 61.5521 23.5089 61.5521 23.8579C61.5521 24.3642 61.3467 24.7692 61.1628 25.1133C60.7057 25.9687 59.935 25.891 59.6887 25.6464C59.2732 25.2338 59.7632 23.1165 59.8457 22.504C59.8949 22.1395 59.9399 21.7139 59.9865 21.3424C60.0128 21.1325 60.0306 20.9694 60.0601 20.765C60.1285 20.2932 60.2039 19.5183 59.887 19.1291C59.7241 18.9291 59.3447 18.8386 59.0252 18.8386C58.4961 18.8386 58.1254 19.2368 57.8287 19.5093C57.7262 19.6035 57.4408 19.8127 57.4029 19.954C57.5242 19.9861 57.5193 20.041 57.6212 20.1089C57.8875 19.714 58.1306 19.6752 58.5259 19.6752C58.7398 19.6752 58.7148 19.7809 58.6922 19.9298L58.5885 21.2555C58.5771 21.5201 58.5344 21.8593 58.5036 22.1007C58.4644 22.4083 58.4618 22.6703 58.4193 22.9775L58.2147 24.6642C58.1673 25.2078 58.0459 25.6213 58.5804 26.0964C58.7455 26.2432 58.9884 26.3304 59.2177 26.3929C59.5371 26.4798 59.666 26.4431 59.8588 26.469C60.4505 26.5489 61.1712 26.3311 61.5934 26.0987C61.7879 25.9916 62.0156 25.8016 62.1727 25.6517L62.2334 25.588C62.5291 25.2651 62.7381 24.9802 62.9244 24.5701C63.3905 23.5432 62.8777 22.8332 62.8623 22.6495L63.923 22.0608L63.7934 23.2954C63.7762 23.4566 63.7399 23.7485 63.7347 23.9187C63.7184 24.4632 63.7061 24.6894 63.7355 25.2521C63.7516 25.5587 63.816 25.999 64.0296 26.2304C64.5855 26.8326 65.7946 26.2846 66.3254 25.9339C66.397 25.8865 66.4508 25.8504 66.5311 25.7974C66.6129 25.7435 66.6621 25.7004 66.7306 25.6547C66.7148 25.5875 66.6652 25.4652 66.637 25.4068C66.1933 25.6399 64.9524 26.0604 64.9524 25.1899C64.9524 24.8322 65.1189 24.0342 65.1943 23.6641L66.1379 19.2102C65.8432 19.1858 64.6083 18.5366 64.578 18.5286L64.2995 19.6773C64.2207 20.0681 64.1441 20.5087 64.0878 20.8923C64.0083 21.4346 64.0883 21.254 63.4772 21.711C63.1723 21.9391 62.9099 22.0797 62.6126 22.2775L62.613 22.2777Z" fill="#222222"/>
<path fill-rule="evenodd" clip-rule="evenodd" d="M52.4739 11.4957C52.2242 11.3296 52.3794 11.3308 51.8709 11.1032C51.2799 10.8384 50.103 10.8701 50.103 11.4957C50.103 11.9178 50.5465 12.2082 50.9765 12.2082H51.3509L51.382 12.9208C51.382 13.6176 50.7914 15.1367 49.799 14.9271C49.5866 14.8822 49.4711 14.8344 49.4039 14.6996C49.126 14.1424 49.4458 12.9855 49.5548 12.4383C49.6608 11.9067 50.1045 9.48416 50.0459 8.94968C50.0141 8.65925 50.004 8.38816 49.7832 8.18818C49.6529 8.07015 49.2538 7.9325 49.0111 7.9325C48.6439 7.9325 48.2782 8.15546 48.0677 8.32785C47.998 8.38491 47.9458 8.42047 47.8801 8.4824L47.3576 8.98592C47.4117 9.0661 47.4684 9.1433 47.576 9.17183C47.6318 8.96415 48.0464 8.73808 48.3248 8.73808C48.3952 8.73808 48.5675 8.78405 48.6368 8.8C48.6368 9.73186 48.1121 12.9972 47.9633 14.049C47.9151 14.3898 47.94 14.677 48.1366 14.9666C48.631 15.6942 49.9791 15.7288 50.8658 15.4753C51.4207 15.3167 51.6315 15.0934 51.9921 14.7968C52.4199 14.4447 52.942 13.5531 52.942 12.8898C52.942 12.2048 52.7291 12.1086 52.7236 11.8674C52.8252 11.8438 52.8926 11.8025 52.9828 11.753C53.0802 11.6997 53.1472 11.6631 53.2446 11.6102C53.3955 11.5284 53.6218 11.3782 53.7843 11.3406C53.753 11.7138 53.6261 12.3173 53.5982 12.7359C53.5548 13.3862 53.3723 14.689 53.669 15.328C54.1495 16.3628 55.9404 15.3678 56.4985 14.9966C56.4827 14.9294 56.4331 14.8072 56.405 14.7488C56.0845 14.9173 55.2822 15.1443 54.9394 14.9339L54.7876 14.7748C54.6121 14.4457 54.9198 13.3599 55.0072 12.9888C55.0629 12.7528 55.1124 12.5082 55.1759 12.2578L55.7123 10.033C55.7709 9.79974 56.0283 8.68589 56.0929 8.55203C55.7493 8.38829 55.3199 8.24281 54.9401 8.0239C54.8204 7.95495 54.6887 7.87382 54.5643 7.80838C54.5454 7.88924 54.5123 7.96536 54.4815 8.06704C54.4471 8.18115 54.4295 8.23131 54.3947 8.3526C54.2056 9.01282 54.0764 9.73984 53.9503 10.4209C53.9203 10.5822 53.9217 10.5716 53.8043 10.6478C53.3666 10.9316 53.2328 11.0535 52.7104 11.3584C52.6133 11.4151 52.559 11.4389 52.4741 11.4954L52.4739 11.4957Z" fill="#222222"/>
<path fill-rule="evenodd" clip-rule="evenodd" d="M15.0682 1.64312C15.0682 2.31903 15.1539 2.92423 15.653 3.41707C15.7712 3.53375 15.7746 3.54957 15.9279 3.63976C16.9857 4.26185 18.1692 3.94709 19.3864 3.70087L22.0333 3.16936C23.4681 2.89408 25.4636 2.68085 26.8791 3.08107C27.28 3.19438 27.8806 3.45493 28.0098 3.8811C28.0463 4.00171 28.0122 3.97805 28.0461 4.05972C28.2249 3.96575 28.3602 3.87975 28.5233 3.75901L28.9436 3.37083C29.269 3.01658 29.4811 2.73291 29.4811 2.20073C29.4811 1.75034 29.0713 1.24628 28.8001 1.04915C28.0573 0.50926 26.3695 0.613236 25.4549 0.742766C24.3241 0.902989 23.4471 1.06281 22.3184 1.3458L20.8641 1.72952C20.0208 1.96316 17.2667 2.61149 16.5959 1.86067C16.5642 1.82525 16.4961 1.74412 16.4718 1.70518C16.2872 1.41002 16.273 0.920161 16.6452 0.668942C17.1733 0.312531 18.1208 0.341871 18.7804 0.341871V0.279945C18.6032 0.238977 18.4235 0.148928 18.2438 0.100117C17.0339 -0.22817 15.0678 0.243169 15.0678 1.64312H15.0682Z" fill="#222222"/>
<path fill-rule="evenodd" clip-rule="evenodd" d="M61.4898 12.1463L61.507 12.0797L61.4898 12.1463ZM61.4898 12.1463L61.3157 12.8409C61.26 13.0895 61.2287 13.322 61.1903 13.5839C61.0951 14.2327 61.1847 15.274 61.7482 15.6077C62.4379 16.0161 63.1257 15.5626 63.4865 15.0278C63.3954 14.9615 63.4484 15.0079 63.393 14.9038C63.1083 14.9696 62.0767 15.7248 62.3274 14.2792C62.4398 13.6309 62.6096 13.0402 62.7623 12.4496L63.6387 9.41604C63.677 9.2934 63.7566 9.08315 63.7674 8.95511C63.393 8.77663 63.1181 8.63858 62.8079 8.32774C62.7189 8.2385 62.6492 8.12195 62.5195 8.08747C62.491 8.20902 62.3832 8.38939 62.3216 8.51068C61.9556 9.23188 61.5045 10.4447 61.126 11.2272C60.8546 11.7881 60.7086 12.1725 60.3928 12.7606L60.1544 13.1746C60.1032 13.2529 60.0796 13.3128 60.0301 13.392C59.9222 13.5645 59.2611 14.544 58.9883 14.0732C58.9382 13.9868 58.8901 13.6743 58.8997 13.5102C58.9214 13.1375 58.9861 12.7345 59.0279 12.3658C59.1602 11.1984 59.7544 8.92631 59.3594 8.09667C59.0866 7.52365 57.9856 7.42535 57.3325 8.07936C57.1151 8.29705 56.8865 8.51744 56.7169 8.7692C56.8678 8.86966 56.8684 8.91982 56.9664 8.95511C57.0604 8.77866 57.1925 8.65657 57.3931 8.57328C57.6625 8.46146 57.781 8.4881 58.0583 8.55232C58.0583 9.42293 57.5561 12.6579 57.4126 13.7358C57.3728 14.0346 57.3389 14.302 57.3397 14.626C57.3405 14.9789 57.4244 15.1673 57.5733 15.3857C57.8878 15.8466 58.7665 15.7575 59.0674 15.5963C59.4299 15.402 59.8257 14.9488 60.0547 14.625C60.3299 14.2358 60.5733 13.8655 60.8144 13.4274C60.9347 13.2085 61.033 13.013 61.1464 12.7967L61.4901 12.1464L61.4898 12.1463Z" fill="#222222"/>
<path fill-rule="evenodd" clip-rule="evenodd" d="M71.785 22.6185C71.785 22.4605 71.7844 22.5671 71.8162 22.5256C71.8162 22.6895 71.8159 22.5719 71.785 22.6185ZM71.8162 22.4636L71.8254 22.4728C71.8247 22.4722 71.813 22.4667 71.8162 22.4636ZM71.785 22.6185L71.5919 23.6972C71.5055 24.3803 71.5087 25.6269 72.1689 25.9862C72.3806 26.1014 72.5805 26.1572 72.8439 26.1202C73.0899 26.0855 73.2862 25.9804 73.4457 25.8483C73.5058 25.7984 73.5067 25.7998 73.5696 25.7544C73.663 25.6872 73.6146 25.7285 73.6839 25.6511C73.7491 25.5781 73.8224 25.4854 73.8751 25.4072C73.8525 25.3111 73.8352 25.3174 73.8127 25.2213C73.7208 25.2456 73.5442 25.3587 73.4346 25.4034C72.8054 25.6603 72.6092 25.4187 72.7113 24.685C72.868 23.5582 73.2624 22.1484 73.5384 21.0448L74.0001 19.2725C73.7023 19.2037 73.2442 18.9085 73.0406 18.7072C72.979 18.6462 72.972 18.6393 72.9074 18.5917C72.8274 18.5329 72.812 18.5421 72.7835 18.436L72.3689 19.2636C72.2536 19.5513 72.1341 19.8197 72.0311 20.1055L71.0043 22.6178C70.7865 23.1111 70.6523 23.3463 70.4086 23.7921C70.3998 23.8081 70.3783 23.8501 70.3647 23.8726C70.2057 24.1365 70.1247 24.2476 69.9058 24.4702C69.7382 24.6404 69.7632 24.6326 69.4453 24.6326C69.3326 24.4653 69.2879 24.4126 69.2882 24.107C69.2885 23.8875 69.2705 23.6491 69.3025 23.4373L69.6629 20.3872C69.7221 19.7011 69.9188 18.5219 69.1837 18.2312C68.5699 17.9885 68.0644 18.1461 67.6094 18.5338L66.9495 19.2726C67.0081 19.3594 67.084 19.4589 67.1991 19.4895C67.2599 19.2633 67.5503 19.0729 67.7955 19.0271C68.473 18.9003 68.2538 19.1851 68.2285 19.9852C68.2079 20.6349 67.9596 22.5651 67.8825 23.3595C67.852 23.6727 67.8225 23.9806 67.7868 24.3178C67.7537 24.6314 67.6993 24.9947 67.7551 25.3196C67.8564 25.9095 68.2157 26.3011 68.9596 26.1952C69.3741 26.1361 69.348 26.1759 69.7218 25.8987C69.9247 25.7483 70.0269 25.6096 70.1266 25.4951C70.3258 25.2662 70.4133 25.1122 70.5726 24.8846L70.8804 24.3849C71.1264 23.9342 71.4904 23.2498 71.6819 22.7952C71.7023 22.7467 71.7015 22.7464 71.7215 22.7106C71.7248 22.7045 71.7293 22.6965 71.7328 22.6909L71.785 22.6186V22.6185Z" fill="#222222"/>
<path fill-rule="evenodd" clip-rule="evenodd" d="M23.9596 3.68789C23.9623 3.81012 23.9908 3.82418 23.9908 4.05972C23.9908 4.80553 23.6286 6.05216 23.4017 6.7589C23.334 6.96969 23.2816 7.18183 23.2146 7.3787C22.8231 8.53041 22.1594 10.8325 21.9291 11.9267C21.6047 13.4687 21.3669 15.0012 21.7757 16.6078C21.9192 17.1719 22.0389 17.5783 22.3306 18.0086C22.6153 18.4283 22.9194 18.6954 23.3772 18.9211C23.7167 19.0886 23.7053 19.0812 24.0775 19.1861C25.1419 19.4861 25.9216 19.3442 26.7129 18.5675L27.1007 18.0543C27.5733 17.2014 27.4924 16.1405 27.048 15.3064C26.9525 15.3317 26.8622 15.4115 26.7673 15.4614C26.7673 15.9827 27.0275 16.67 26.4246 17.5068C25.9163 18.2126 24.7707 18.2607 24.0154 17.7916C23.1799 17.2725 22.8052 16.2725 22.8052 15.3064C22.8052 13.7679 23.169 12.3722 23.5675 10.9822C23.6293 10.7665 23.6782 10.5587 23.7449 10.3528C23.9885 9.59978 24.2542 8.63993 24.5017 7.91318C24.7427 7.20563 25.2699 5.35597 25.2699 4.67925C25.2699 4.39071 25.2979 4.08703 25.1062 3.85041C24.8731 3.56255 24.2989 3.6526 23.9596 3.68789Z" fill="#222222"/>
<path fill-rule="evenodd" clip-rule="evenodd" d="M52.7546 23.2692C52.7546 23.0694 52.8072 22.8687 52.8164 22.6799C52.8698 21.5928 52.9294 20.4338 52.1621 19.5509C52.022 19.3897 51.646 19.2724 51.4754 19.2724C51.0417 19.2724 50.5739 19.6231 50.3347 19.9675C50.2911 20.0302 50.267 20.0812 50.2275 20.1399C50.2881 20.2299 50.2907 20.1814 50.321 20.2948C50.4275 20.2666 50.3922 20.2602 50.4792 20.2041C50.5278 20.1727 50.5883 20.1366 50.6343 20.1103C51.6943 19.5029 51.5058 20.7006 51.4156 21.4748C51.3326 22.1878 51.2215 22.7636 51.1269 23.4498C51.0987 23.6538 51.058 23.8645 51.0207 24.088L50.7446 25.6728C50.6756 26.0474 50.6539 26.3564 50.9837 26.6079C51.2999 26.8491 51.8135 26.9831 52.0276 26.5442C52.4448 25.6893 52.6471 24.3072 52.7263 24.2328L53.9183 23.5576C54.0191 23.5012 54.0698 23.4518 54.1895 23.4241C54.1895 24.4325 54.0677 26.0499 55.2498 26.3988C55.4639 26.4621 55.7988 26.5778 56.0745 26.5377C56.4772 26.479 56.7788 26.3226 57.0172 26.0466L57.0602 25.9963C57.177 25.8561 57.7224 25.1365 57.3403 25.0353C57.2967 25.1975 57.0737 25.4148 56.9256 25.4909C56.6605 25.6272 56.2584 25.6303 56.0427 25.3944L55.9734 25.3082C55.3764 24.4662 55.9614 21.4775 56.2059 20.6554C56.2546 20.4917 56.311 20.3408 56.3734 20.2019C56.4188 20.1007 56.5604 19.9115 56.5604 19.7681C56.5604 19.3319 55.8996 18.9934 55.4374 18.9934C55.1539 19.4138 55.0544 19.6716 54.9069 20.2017C54.781 20.6541 54.6555 21.0949 54.5218 21.5543C54.355 22.1279 54.3792 22.2709 53.933 22.7047C53.637 22.9922 53.1919 23.2692 52.7544 23.2692H52.7546Z" fill="#222222"/>
<path fill-rule="evenodd" clip-rule="evenodd" d="M21.0894 24.9422C21.0894 24.5323 21.1907 24.0286 21.2701 23.6964C21.4129 23.0985 21.748 22.1116 22.0749 21.6142C22.2438 21.3571 22.5354 20.9764 22.8989 20.9764C23.1794 20.9764 23.5112 21.1123 23.6175 21.3781C23.7641 21.7448 23.61 22.2302 23.4619 22.5578C23.4445 22.5965 23.4236 22.6456 23.4028 22.6849L22.7808 23.7092C22.7251 23.792 22.6942 23.8243 22.637 23.9072C22.5625 24.0154 22.5605 24.0229 22.4699 24.1131C22.1549 24.4267 21.829 24.9421 21.0896 24.9421L21.0894 24.9422ZM19.2488 24.4465C19.2488 25.1755 19.2817 25.5407 19.5559 26.2174C19.9955 27.3031 20.9695 28.5362 22.275 28.5362C23.1187 28.5362 23.9752 28.3265 24.5603 27.7385C24.8107 27.4869 25.0073 27.2896 25.182 26.9616C25.4943 26.3748 25.8537 25.8497 25.2841 25.4858C24.9304 25.2598 24.5772 25.3711 24.3652 25.3758C24.373 25.7229 24.4899 25.9406 24.4899 26.5842C24.4899 26.7356 23.907 27.4712 23.5022 27.7101C22.7839 28.134 22.1429 27.6736 21.7127 27.1116C21.4079 26.7133 21.2141 26.2651 21.2141 25.5619C21.5476 25.5895 21.5116 25.5934 21.8969 25.4653C22.4373 25.2856 23.1616 24.8499 23.5511 24.4747C23.5557 24.4702 23.5622 24.4638 23.5667 24.4593C23.5712 24.4547 23.5776 24.448 23.582 24.4434C23.9159 24.0919 23.9524 24.1385 24.2845 23.6539C24.781 22.9296 24.8541 22.0076 24.3905 21.2299C23.9662 20.5179 23.4987 20.1627 22.4704 20.3033C22.051 20.3607 21.7086 20.5306 21.3805 20.708C20.8704 20.9838 20.1714 21.6466 19.894 22.1441C19.5039 22.8431 19.2486 23.5812 19.2486 24.4465H19.2488Z" fill="#222222"/>
<path fill-rule="evenodd" clip-rule="evenodd" d="M28.2336 11.9604H28.0776C28.0776 11.1909 28.8518 8.9762 29.5516 8.43604C29.8397 8.21376 30.2466 8.16103 30.5595 8.41116C31.2118 8.93266 30.2078 10.3411 29.8344 10.7927L29.4503 11.2477C29.3 11.427 29.3497 11.3629 29.1793 11.5052C29.0467 11.6158 28.9458 11.7111 28.7855 11.7957C28.6446 11.8701 28.4332 11.9603 28.2337 11.9603L28.2336 11.9604ZM31.8525 12.642C31.5964 12.642 31.3195 12.9035 31.271 13.1179C31.1962 13.4485 31.3671 13.3624 31.0737 14.0065C30.9749 14.2235 30.908 14.2997 30.7482 14.4578C30.6913 14.5142 30.6747 14.5482 30.6103 14.5997C30.1384 14.9768 29.5078 15.006 29.0257 14.6439C28.3885 14.1653 28.1399 13.4323 28.1399 12.5492C28.5258 12.7331 29.257 12.3832 29.5647 12.2292C29.7568 12.1329 29.8988 12.0701 30.0684 11.9549C31.21 11.1792 32.1736 10.0652 31.5249 8.62993C31.0763 7.63723 30.291 7.37762 29.2189 7.64115C28.8708 7.72673 28.3877 7.97525 28.1397 8.14953L27.6521 8.53285C27.4644 8.69226 27.2924 8.88791 27.1454 9.08302C27.0837 9.16495 27.041 9.23742 26.9812 9.32274C26.4625 10.0641 26.1756 11.4101 26.339 12.4787C26.4252 13.0422 26.7095 13.6781 26.9986 14.1473C27.4911 14.9465 28.3448 15.6532 29.5175 15.5286C30.1227 15.4642 30.1571 15.4681 30.7517 15.2053C30.8534 15.1604 30.9068 15.1365 30.9963 15.0763C31.0729 15.0248 31.1666 14.9619 31.2336 14.9092L31.4126 14.7462C31.8138 14.4098 32.5275 13.3648 32.3228 12.9814C32.2359 12.8184 32.0988 12.6423 31.8523 12.6423L31.8525 12.642Z" fill="#222222"/>
<path fill-rule="evenodd" clip-rule="evenodd" d="M17.9385 12.456C18.1408 12.456 18.3691 12.5845 18.5063 12.6667C18.6422 12.7482 18.8942 12.8553 18.9368 13.0138H19.0304C19.0701 12.8442 19.1402 12.6628 19.1865 12.4873L19.6231 10.783C19.7186 10.4038 19.8105 10.0273 19.9105 9.64316C20.0062 9.27553 20.086 8.8772 20.1911 8.49659C20.4087 7.70913 21.0851 4.81836 21.4841 4.26576C21.5714 4.14502 21.5138 4.27238 21.5573 4.15259C21.1791 4.15259 20.4301 4.16273 20.1567 4.24872C19.9836 4.30321 20.0056 4.45681 19.9292 4.76644L18.2317 11.2601C18.179 11.4708 18.1359 11.6425 18.0767 11.8496C18.029 12.0165 17.9423 12.2849 17.9385 12.456Z" fill="#222222"/>
<path fill-rule="evenodd" clip-rule="evenodd" d="M60.8035 7.59177C61.784 6.93966 62.7832 6.01902 63.0877 4.84108C63.1622 4.55295 63.239 4.06525 63.2363 3.7183C63.2348 3.52915 63.2681 3.47263 63.2681 3.31619C63.144 3.34918 63.1742 3.41936 63.0558 3.50805C62.7636 3.72669 61.8397 3.91895 61.3151 4.78483C61.0917 5.15368 60.9588 5.57378 60.8744 6.0512C60.8201 6.35867 60.7221 7.39599 60.8036 7.59191L60.8035 7.59177Z" fill="#222222"/>
<path fill-rule="evenodd" clip-rule="evenodd" d="M70.7242 18.2499C70.8394 18.2194 70.8875 18.1568 70.9697 18.0911C71.0483 18.0283 71.1182 17.9772 71.1968 17.9138L71.8305 17.3348C72.809 16.2601 73.064 15.7125 73.064 13.9124C72.9148 13.966 73.1024 13.9716 72.6101 14.2672L72.0593 14.5567C71.8519 14.6849 71.7613 14.7619 71.586 14.9232L71.5539 14.9534C71.5494 14.9579 71.543 14.9645 71.5385 14.9691C71.5372 14.9704 71.5035 15.0083 71.4944 15.0183C70.6739 15.9085 70.7242 17.0508 70.7242 18.2502V18.2499Z" fill="#222222"/>
<path fill-rule="evenodd" clip-rule="evenodd" d="M43.2084 38.5437C43.4455 38.4888 43.6881 38.4547 43.9487 38.409C44.474 38.3171 44.6766 39.0082 44.0233 39.1361C43.8041 39.1791 43.5516 39.2057 43.3332 39.2563C43.3076 39.147 43.2905 39.0322 43.271 38.9153C43.2503 38.7906 43.2119 38.6715 43.2084 38.5437ZM43.0837 37.7691C43.6394 37.7691 44.1444 37.4021 44.1444 37.986C44.1444 38.2315 43.8355 38.2154 43.4759 38.2829C43.1566 38.3427 43.1717 38.3514 43.1419 38.2077C43.1155 38.0801 43.0835 37.9173 43.0835 37.7691H43.0837ZM42.8029 37.6141C42.8029 37.8279 43.1097 39.2736 43.1148 39.5041C43.5656 39.3999 44.236 39.3789 44.4654 39.1723C44.7625 38.9049 44.6925 38.346 44.2692 38.2338C44.3181 38.142 44.3941 38.0568 44.3941 37.924C44.3941 37.1232 43.3295 37.5707 42.8029 37.6141Z" fill="#222222"/>
<path fill-rule="evenodd" clip-rule="evenodd" d="M52.5363 36.22C52.5057 36.106 52.255 35.7143 52.2243 35.6004C52.3249 35.5475 52.3987 35.4975 52.5049 35.4453C52.7886 35.3056 53.224 34.9774 53.4214 35.3729C53.478 35.4865 53.4833 35.5863 53.4268 35.7095C53.3427 35.8932 52.6391 36.2116 52.5362 36.2202L52.5363 36.22ZM51.85 34.9188C51.9766 34.8522 52.531 34.5469 52.63 34.5469C52.7981 34.5469 52.942 34.5434 52.942 34.8567C52.942 35.0234 52.8115 35.0618 52.5778 35.1766C52.4213 35.2535 52.2681 35.3754 52.0997 35.4144L51.8501 34.9188H51.85ZM51.5381 34.8568L52.4428 36.5299C52.5656 36.4654 52.6945 36.4081 52.8176 36.3444C53.2705 36.1102 53.6907 35.9635 53.6907 35.5075C53.6907 35.2169 53.4266 34.9808 53.1291 34.9808C53.1844 34.7453 53.2241 34.6585 53.0449 34.4757C52.8912 34.3188 52.7752 34.2684 52.5245 34.3486L51.538 34.8568H51.5381Z" fill="#222222"/>
<path fill-rule="evenodd" clip-rule="evenodd" d="M14.8499 35.8172L14.4177 35.3479C14.3224 35.2295 14.0429 34.9884 14.0075 34.8568C13.87 34.8599 13.8617 34.8878 13.6955 34.8878L13.8337 36.2998C13.8544 36.4497 13.8827 36.6339 13.8827 36.7777H14.1011C14.1011 36.2433 13.945 35.699 13.945 35.1666C13.9965 35.204 14.1034 35.3394 14.1716 35.4063C14.3792 35.6098 14.7156 36.1107 14.9121 36.1271L15.2141 35.5595C15.2718 35.4563 15.3104 35.3876 15.3701 35.2807L15.4963 35.0652C15.5433 35.0101 15.4922 35.0387 15.5672 35.0118C15.5672 35.3963 15.6455 35.8023 15.6867 36.1943C15.701 36.3298 15.7232 36.4799 15.7232 36.5918L15.9728 36.5609L15.7544 34.6709C15.3426 34.6709 15.3807 34.8953 15.0309 35.4705C14.9788 35.5563 14.871 35.7269 14.8497 35.8172H14.8499Z" fill="#222222"/>
<path fill-rule="evenodd" clip-rule="evenodd" d="M41.8981 39.4112C41.4744 39.4112 41.1208 39.4731 40.7125 39.4731C40.7125 38.8164 40.619 38.289 40.619 37.8001H40.3694C40.3694 38.215 40.4941 39.3056 40.4941 39.721C40.7283 39.6668 41.8052 39.6619 42.0852 39.5971C42.1366 39.7033 42.1487 39.8711 42.1788 39.9999H42.366L42.3348 39.3803H42.1476L42.0228 37.7072H41.7732L41.8674 38.9768C41.8666 39.1734 41.8979 39.2547 41.8979 39.4112H41.8981Z" fill="#222222"/>
<path fill-rule="evenodd" clip-rule="evenodd" d="M36.6569 38.3268C36.6569 37.6842 37.4768 37.8632 37.8736 37.955C37.8736 38.1413 37.832 38.3544 37.8057 38.5383C37.7553 38.8917 37.8702 38.8967 37.5135 38.8404C37.2154 38.7933 36.6568 38.8279 36.6568 38.3268H36.6569ZM36.7817 38.9155C36.6738 39.0756 36.4314 39.2678 36.3138 39.4422C36.4342 39.4522 36.4366 39.4731 36.5945 39.4731C36.625 39.3596 36.6956 39.3324 36.7743 39.2488C37.0742 38.9303 36.8632 38.9777 37.3176 39.0337C37.4751 39.053 37.5519 39.0702 37.7176 39.0702C37.7176 39.283 37.6706 39.4441 37.6552 39.628L37.904 39.6642C37.9049 39.509 37.9399 39.3057 37.9578 39.1846L38.1545 37.7688C37.6303 37.7256 36.6147 37.3646 36.4329 38.1674C36.3563 38.5061 36.5242 38.7438 36.7819 38.9153L36.7817 38.9155Z" fill="#222222"/>
<path fill-rule="evenodd" clip-rule="evenodd" d="M49.6348 36.4678C49.6348 36.2224 49.6329 36.0108 49.861 35.8251C50.1628 35.5791 50.7009 35.544 50.9507 35.8426C51.2321 36.1789 51.262 36.6171 50.9579 36.9454C50.5286 37.4086 49.6347 37.1283 49.6347 36.4678H49.6348ZM49.3853 36.3129C49.3853 36.7088 49.4994 36.9985 49.7945 37.2077C50.4546 37.6754 51.413 37.2266 51.413 36.3748C51.413 35.915 50.9922 35.4143 50.5395 35.4143C50.1254 35.4143 49.8758 35.4628 49.594 35.8075C49.5598 35.8493 49.5182 35.9052 49.4909 35.953C49.4438 36.0357 49.3853 36.1973 49.3853 36.3128V36.3129Z" fill="#222222"/>
<path fill-rule="evenodd" clip-rule="evenodd" d="M24.2404 37.0875C24.3667 37.0904 24.4908 37.1293 24.6148 37.1494L25.7378 37.3663C25.7408 37.2302 25.759 37.2698 25.769 37.1494L24.5211 36.9016C24.5605 36.7339 24.6419 36.4003 24.646 36.22C24.9997 36.3018 25.3846 36.3551 25.7378 36.4369C25.7378 36.3145 25.7477 36.3111 25.769 36.22L24.7083 36.0341C24.7083 35.8408 24.7636 35.6396 24.8018 35.4764C25.0234 35.4764 25.3196 35.5625 25.5236 35.5962C26.225 35.7116 25.9263 35.7318 26.0498 35.4764C25.575 35.3666 25.0589 35.3075 24.5835 35.1976C24.5835 35.35 24.5387 35.5314 24.5082 35.6804L24.2404 37.0875Z" fill="#222222"/>
<path fill-rule="evenodd" clip-rule="evenodd" d="M45.0801 37.2115C45.0834 37.3554 45.1458 37.5328 45.1848 37.6653L45.4236 38.5744C45.4567 38.6985 45.5004 38.9407 45.5482 39.0394C45.8194 39.0334 46.7346 38.6985 47.0145 38.6985C46.9972 38.6247 46.9815 38.5428 46.9521 38.4817L45.7354 38.7914C45.6526 38.62 45.6311 38.2813 45.5482 38.1098C45.7628 38.0602 46.4425 37.862 46.6089 37.862C46.601 37.7671 46.5794 37.713 46.5465 37.6451C46.2606 37.6688 45.7195 37.8878 45.4858 37.893C45.4701 37.7037 45.3769 37.5245 45.361 37.3352C45.6229 37.3294 46.2947 37.0772 46.5465 37.0564L46.4798 36.8409C46.2566 36.8921 46.015 36.9637 45.7916 37.0191C45.6645 37.0507 45.5709 37.0705 45.4438 37.1074C45.336 37.1386 45.1588 37.1739 45.0804 37.2112L45.0801 37.2115Z" fill="#222222"/>
<path fill-rule="evenodd" clip-rule="evenodd" d="M17.6577 34.7948H17.7201C17.7666 34.9933 18.1587 35.7853 18.188 35.9101H17.1897C17.2319 35.8307 17.2625 35.7439 17.3037 35.6517L17.6576 34.7948H17.6577ZM16.9402 36.4988C16.9628 36.4021 17.0512 36.127 17.1586 36.127H18.2193C18.3103 36.127 18.3305 36.2116 18.3657 36.2914C18.4124 36.3975 18.4107 36.4125 18.4689 36.4987H18.7184C18.6973 36.4204 18.6552 36.3679 18.6114 36.2642L18.0843 35.0837C18.0276 34.963 17.887 34.7081 17.8761 34.5778H17.5329L16.7266 36.3874C16.6617 36.5395 16.7631 36.4987 16.9402 36.4987V36.4988Z" fill="#222222"/>
<path fill-rule="evenodd" clip-rule="evenodd" d="M26.9546 36.8087L27.0911 36.1078C27.1336 35.8781 27.0308 35.8443 27.7984 36.0326C27.9558 36.0713 28.0535 36.1304 28.1221 36.2687C28.2818 36.5906 28.0433 36.9812 27.7085 36.9604L26.9546 36.8086V36.8087ZM26.549 37.5213C26.6979 37.5213 26.6783 37.5424 26.7985 37.5522C26.8026 37.3721 26.8775 37.2001 26.8921 37.0255C27.0243 37.0284 27.1577 37.0703 27.2854 37.0996C27.3778 37.1208 27.6308 37.1804 27.7032 37.1804C28.2545 37.1804 28.6554 36.5609 28.2567 36.0732C28.1573 35.9516 28.0682 35.8931 27.8995 35.8391L26.9233 35.6313C26.9233 35.8156 26.7851 36.3628 26.7438 36.5686L26.5489 37.5214L26.549 37.5213Z" fill="#222222"/>
<path fill-rule="evenodd" clip-rule="evenodd" d="M34.9722 37.5213C34.988 37.7091 35.0606 37.9199 35.0995 38.1074C35.1346 38.2767 35.2175 38.5145 35.2218 38.6987L34.2547 38.5128L34.8513 37.6182C34.9007 37.5487 34.8769 37.5467 34.9722 37.5214V37.5213ZM33.6619 39.0085L33.9107 39.0447C33.9395 38.9354 34.0671 38.7919 34.13 38.6986L35.2844 38.9154C35.3131 39.0378 35.3673 39.1907 35.3779 39.3182L35.6265 39.3545C35.6242 39.2028 35.5526 38.9897 35.5151 38.8411L35.1594 37.3354C35.0591 37.3121 34.9327 37.276 34.8162 37.2734L34.2487 38.1351C34.1842 38.2295 33.6858 38.9196 33.6618 39.0085H33.6619Z" fill="#222222"/>
<path fill-rule="evenodd" clip-rule="evenodd" d="M31.3222 38.5128C31.6096 38.5793 31.5491 38.5802 31.6368 38.1435C31.6635 38.0102 31.7163 37.8125 31.7278 37.6762C31.935 37.6762 32.0171 37.7381 32.2582 37.7381L32.661 38.7012C32.7347 38.8401 32.9697 38.8809 32.9465 38.7772C32.9092 38.6104 32.494 37.8528 32.4765 37.6452C32.6618 37.5962 32.8127 37.241 33.0112 37.1512C33.1226 37.1009 33.1728 37.1494 33.3189 37.1494C33.3211 37.0551 33.333 37.0365 33.3501 36.9635C33.1431 36.9157 33.0055 36.822 32.7596 37.0587L32.4481 37.4C32.4439 37.4047 32.4377 37.4116 32.4333 37.4162C32.4288 37.4208 32.4225 37.4276 32.4179 37.432C32.4132 37.4365 32.4066 37.4428 32.4018 37.4472C32.3969 37.4515 32.39 37.4574 32.3849 37.4615C32.2224 37.5918 32.0847 37.5272 31.7902 37.4592C31.7902 37.2468 31.9001 36.8812 31.9463 36.6846C31.826 36.6746 31.8457 36.6536 31.6967 36.6536C31.6256 36.9564 31.5721 37.2694 31.5073 37.5809C31.4757 37.7322 31.4424 37.8704 31.4082 38.0402C31.3847 38.1574 31.3254 38.3775 31.3224 38.5126L31.3222 38.5128Z" fill="#222222"/>
<path fill-rule="evenodd" clip-rule="evenodd" d="M29.0135 37.2734C29.0135 37.5085 29.0783 37.6847 29.2062 37.8566C29.286 37.9638 29.4773 38.1197 29.6272 38.1822C29.9327 38.3093 30.2811 38.2945 30.5734 38.1411C30.5646 38.0359 30.5496 38.0276 30.5111 37.9551C30.2811 38.0084 30.3535 38.048 30.0431 38.048C29.6343 38.048 29.2631 37.7585 29.2631 37.3664V37.2115C29.2631 36.4873 30.1823 36.3244 30.5965 36.6928C30.6845 36.7711 30.639 36.7738 30.7294 36.8397C30.834 36.7848 30.8175 36.8165 30.8854 36.7158C30.3654 35.9443 29.0136 36.2452 29.0136 37.2736L29.0135 37.2734Z" fill="#222222"/>
<path fill-rule="evenodd" clip-rule="evenodd" d="M20.3095 36.5918C20.6606 36.5918 20.7127 36.5839 21.027 36.375C20.9662 36.2849 20.9638 36.3335 20.9334 36.22C20.8801 36.2243 20.1992 36.6098 19.7784 36.1588C19.2915 35.6369 19.646 34.6693 20.5519 34.8636C20.8355 34.9244 20.7747 34.9474 20.9646 35.0737C21.0553 35.0134 21.0064 35.011 21.1206 34.9808C21.0512 34.7226 20.1782 34.3494 19.6297 34.8943C19.467 35.0559 19.3458 35.2734 19.325 35.5803C19.3125 35.7657 19.3898 35.9975 19.4844 36.141C19.6494 36.3913 19.9563 36.592 20.3095 36.592V36.5918Z" fill="#222222"/>
<path fill-rule="evenodd" clip-rule="evenodd" d="M21.9318 35.0116C22.1011 35.0508 22.4825 35.1045 22.6806 35.1045L22.4622 36.8086C22.6092 36.8086 22.6017 36.8141 22.7117 36.8395L22.8773 35.6097C22.8921 35.5084 22.9301 35.2887 22.9301 35.1664C23.1693 35.1664 23.5109 35.2134 23.7101 35.2593C23.7202 35.139 23.7383 35.1786 23.7413 35.0425C23.4367 35.0173 23.0739 34.9557 22.7524 34.909C21.8924 34.7843 21.9318 34.7388 21.9318 35.0115V35.0116Z" fill="#222222"/>
<path fill-rule="evenodd" clip-rule="evenodd" d="M47.0455 36.6537L47.1122 36.8693C47.2348 36.8413 47.3706 36.7888 47.4862 36.7507C47.605 36.7115 47.7512 36.6472 47.8567 36.6228L48.4183 38.2339C48.4945 38.1939 48.5614 38.1769 48.6367 38.141L48.2266 36.9371C48.1858 36.8288 48.125 36.6333 48.0751 36.5299C48.1882 36.5206 48.3551 36.4557 48.4586 36.4151C48.5798 36.3675 48.7205 36.3313 48.8239 36.282C48.7941 36.2205 48.7791 36.1713 48.7615 36.0961C48.6595 36.1045 48.039 36.3276 47.9192 36.3749C47.7811 36.4296 47.1807 36.6508 47.0457 36.6537H47.0455Z" fill="#222222"/>
</svg>
