<svg width="26" height="28" viewBox="0 0 26 28" fill="none" xmlns="http://www.w3.org/2000/svg">
<path fill-rule="evenodd" clip-rule="evenodd" d="M12.9807 13.36C9.42057 13.36 6.51123 10.4507 6.51123 6.89054C6.51123 3.29214 9.42057 0.421082 12.9807 0.421082C16.5408 0.421082 19.4501 3.33042 19.4501 6.89054C19.4501 10.4507 16.5408 13.36 12.9807 13.36ZM12.9807 11.8288C15.6986 11.8288 17.9189 9.60847 17.9189 6.89054C17.9189 4.1726 15.6986 1.95231 12.9807 1.95231C10.2627 1.95231 8.04246 4.1726 8.04246 6.89054C8.04246 9.60847 10.2627 11.8288 12.9807 11.8288ZM24.3884 27.1411H1.61132C1.15195 27.1411 0.845703 26.7965 0.845703 26.3754C0.845703 19.6763 6.2433 14.2021 12.9807 14.2021C19.7181 14.2021 25.154 19.6763 25.154 26.3754C25.154 26.7965 24.8095 27.1411 24.3884 27.1411ZM23.5845 25.6481C23.2017 20.1357 18.5697 15.7717 12.9807 15.7717C7.39172 15.7717 2.75974 20.1357 2.37694 25.6481H23.5845Z" fill="#838383"/>
</svg>
